<svg width="40" height="40" viewBox="0 0 40 40" fill="none" xmlns="http://www.w3.org/2000/svg">
<g filter="url(#filter0_dd_555_2950)">
<mask id="path-1-inside-1_555_2950" fill="white">
<path d="M5 15.6667C5 7.56649 11.5665 1 19.6667 1C27.7668 1 34.3333 7.56649 34.3333 15.6667C34.3333 23.7668 27.7668 30.3333 19.6667 30.3333C11.5665 30.3333 5 23.7668 5 15.6667Z"/>
</mask>
<path d="M5 15.6667C5 7.56649 11.5665 1 19.6667 1C27.7668 1 34.3333 7.56649 34.3333 15.6667C34.3333 23.7668 27.7668 30.3333 19.6667 30.3333C11.5665 30.3333 5 23.7668 5 15.6667Z" fill="white" shape-rendering="crispEdges"/>
<path d="M19.6667 30.3333V29.6667C11.9347 29.6667 5.66667 23.3987 5.66667 15.6667H5H4.33333C4.33333 24.135 11.1983 31 19.6667 31V30.3333ZM34.3333 15.6667H33.6667C33.6667 23.3987 27.3987 29.6667 19.6667 29.6667V30.3333V31C28.135 31 35 24.135 35 15.6667H34.3333ZM19.6667 1V1.66667C27.3987 1.66667 33.6667 7.93468 33.6667 15.6667H34.3333H35C35 7.1983 28.135 0.333333 19.6667 0.333333V1ZM19.6667 1V0.333333C11.1983 0.333333 4.33333 7.1983 4.33333 15.6667H5H5.66667C5.66667 7.93468 11.9347 1.66667 19.6667 1.66667V1Z" fill="#F3F4F6" mask="url(#path-1-inside-1_555_2950)"/>
<path d="M21.6665 19.6666L17.6665 15.6666L21.6665 11.6666" stroke="#4A5565" stroke-width="1.33333" stroke-linecap="round" stroke-linejoin="round"/>
</g>
<defs>
<filter id="filter0_dd_555_2950" x="0" y="0" width="39.3335" height="39.3334" filterUnits="userSpaceOnUse" color-interpolation-filters="sRGB">
<feFlood flood-opacity="0" result="BackgroundImageFix"/>
<feColorMatrix in="SourceAlpha" type="matrix" values="0 0 0 0 0 0 0 0 0 0 0 0 0 0 0 0 0 0 127 0" result="hardAlpha"/>
<feMorphology radius="2" operator="erode" in="SourceAlpha" result="effect1_dropShadow_555_2950"/>
<feOffset dy="2"/>
<feGaussianBlur stdDeviation="2"/>
<feComposite in2="hardAlpha" operator="out"/>
<feColorMatrix type="matrix" values="0 0 0 0 0 0 0 0 0 0 0 0 0 0 0 0 0 0 0.1 0"/>
<feBlend mode="normal" in2="BackgroundImageFix" result="effect1_dropShadow_555_2950"/>
<feColorMatrix in="SourceAlpha" type="matrix" values="0 0 0 0 0 0 0 0 0 0 0 0 0 0 0 0 0 0 127 0" result="hardAlpha"/>
<feMorphology radius="1" operator="erode" in="SourceAlpha" result="effect2_dropShadow_555_2950"/>
<feOffset dy="4"/>
<feGaussianBlur stdDeviation="3"/>
<feComposite in2="hardAlpha" operator="out"/>
<feColorMatrix type="matrix" values="0 0 0 0 0 0 0 0 0 0 0 0 0 0 0 0 0 0 0.1 0"/>
<feBlend mode="normal" in2="effect1_dropShadow_555_2950" result="effect2_dropShadow_555_2950"/>
<feBlend mode="normal" in="SourceGraphic" in2="effect2_dropShadow_555_2950" result="shape"/>
</filter>
</defs>
</svg>
