<svg width="20" height="20" viewBox="0 0 20 20" fill="none" xmlns="http://www.w3.org/2000/svg">
<g clip-path="url(#clip0_449_280)">
<path d="M18.75 7.66625H17.0156C16.9044 7.33187 16.7687 7.00562 16.6106 6.69062L17.8375 5.46313C18.0206 5.28 18.0206 4.98312 17.8375 4.8L15.2 2.1625C15.0169 1.97938 14.72 1.97938 14.5369 2.1625L13.3094 3.39C12.9944 3.23187 12.6681 3.09625 12.3337 2.985V1.25C12.3337 0.99125 12.1237 0.78125 11.865 0.78125H8.13438C7.87563 0.78125 7.66563 0.99125 7.66563 1.25V2.98438C7.33125 3.09563 7.005 3.23125 6.69 3.38937L5.46313 2.1625C5.28 1.97938 4.98312 1.97938 4.8 2.1625L2.1625 4.8C1.97938 4.98312 1.97938 5.28 2.1625 5.46313L3.38937 6.69062C3.23125 7.00562 3.09563 7.33187 2.98438 7.66625H1.25C0.99125 7.66625 0.78125 7.87625 0.78125 8.135V11.865C0.78125 12.1237 0.99125 12.3337 1.25 12.3337H2.98438C3.09563 12.6681 3.23125 12.9944 3.38937 13.31L2.1625 14.5369C1.97938 14.72 1.97938 15.0169 2.1625 15.2L4.8 17.8381C4.97562 18.0138 5.28688 18.0138 5.46313 17.8381L6.69062 16.6106C7.00562 16.7687 7.33187 16.9044 7.66625 17.0156V18.75C7.66625 19.0088 7.87625 19.2188 8.135 19.2188H11.8656C12.1244 19.2188 12.3344 19.0088 12.3344 18.75V17.015C12.6688 16.9038 12.995 16.7681 13.31 16.61L14.5375 17.8375C14.7131 18.0131 15.0244 18.0131 15.2006 17.8375L17.8381 15.1994C17.9263 15.1113 17.9756 14.9919 17.9756 14.8681C17.9756 14.7437 17.9263 14.6244 17.8381 14.5369L16.6106 13.31C16.7687 12.995 16.9044 12.6687 17.0156 12.3337H18.75C19.0088 12.3337 19.2188 12.1237 19.2188 11.865V8.135C19.2188 7.87625 19.0088 7.66625 18.75 7.66625ZM18.2812 11.3962H16.6688C16.4588 11.3962 16.2737 11.5362 16.2175 11.7387C16.0781 12.2362 15.8794 12.7156 15.6256 13.165C15.5219 13.3481 15.5531 13.5781 15.7025 13.7269L16.8438 14.8681L14.8688 16.8431L13.7275 15.7019C13.5781 15.5519 13.3481 15.5219 13.1656 15.625C12.7156 15.8794 12.2356 16.0787 11.7394 16.2175C11.5369 16.2737 11.3969 16.4588 11.3969 16.6688V18.2812H8.60375V16.6688C8.60375 16.4588 8.46375 16.2737 8.26125 16.2175C7.76438 16.0781 7.28437 15.8787 6.835 15.6256C6.65187 15.5212 6.42187 15.5525 6.27312 15.7025L5.13125 16.8431L3.15625 14.8681L4.2975 13.7269C4.44687 13.5781 4.47813 13.3487 4.375 13.165C4.12125 12.715 3.92187 12.2356 3.78312 11.7381C3.72687 11.5356 3.54187 11.3956 3.33187 11.3956H1.71875V8.60313H3.33125C3.54125 8.60313 3.72625 8.46313 3.7825 8.26063C3.92188 7.76437 4.12062 7.28437 4.375 6.835C4.47875 6.65187 4.44687 6.42187 4.29812 6.27312L3.15688 5.13125L5.13188 3.15625L6.27312 4.2975C6.42187 4.44687 6.65187 4.4775 6.835 4.375C7.28437 4.12125 7.76438 3.92187 8.26125 3.78312C8.46375 3.72687 8.60375 3.54187 8.60375 3.33187V1.71875H11.3969V3.33125C11.3969 3.54125 11.5369 3.72625 11.7394 3.7825C12.2356 3.92125 12.7156 4.12062 13.165 4.375C13.3475 4.4775 13.5775 4.44687 13.7269 4.29812L14.8681 3.15688L16.8431 5.13188L15.7019 6.27312C15.5531 6.42187 15.5213 6.65125 15.625 6.835C15.8787 7.28437 16.0781 7.76438 16.2169 8.26125C16.2731 8.46375 16.4581 8.60375 16.6681 8.60375H18.2806L18.2812 11.3962Z" fill="#D3222A"/>
<path d="M12.9932 4.77686H7.00759C5.77759 4.77686 4.77759 5.77748 4.77759 7.00686V12.9925C4.77759 14.2225 5.77821 15.2225 7.00759 15.2225H12.9932C14.2232 15.2225 15.2232 14.2219 15.2232 12.9925V7.00686C15.2232 5.77748 14.2226 4.77686 12.9932 4.77686ZM14.2857 12.9931C14.2857 13.7062 13.7057 14.2856 12.9932 14.2856H7.00759C6.29446 14.2856 5.71509 13.7056 5.71509 12.9931V7.00748C5.71509 6.29436 6.29509 5.71498 7.00759 5.71498H12.9932C13.7063 5.71498 14.2857 6.29498 14.2857 7.00748V12.9931Z" fill="#D3222A"/>
<path d="M13.0501 6.98799H12.472V6.75674C12.472 6.13674 11.5345 6.13611 11.5345 6.75674V6.98799H6.9501C6.3301 6.98799 6.32947 7.92549 6.9501 7.92549H11.5351V8.15674C11.5351 8.77674 12.4726 8.77736 12.4726 8.15674V7.92549H13.0507C13.6701 7.92549 13.6707 6.98799 13.0501 6.98799Z" fill="#D3222A"/>
<path d="M13.0501 9.53145H8.32322V9.3002C8.32322 8.6802 7.38572 8.67957 7.38572 9.3002V9.53145H6.9501C6.3301 9.53145 6.32947 10.4689 6.9501 10.4689H7.38572V10.7002C7.38572 11.3202 8.32322 11.3208 8.32322 10.7002V10.4689H13.0501C13.6701 10.4689 13.6707 9.53145 13.0501 9.53145Z" fill="#D3222A"/>
<path d="M13.0501 12.0744H10.4688V11.8432C10.4688 11.2232 9.53135 11.2225 9.53135 11.8432V12.0744H6.9501C6.3301 12.0744 6.32947 13.0119 6.9501 13.0119H9.53135V13.2432C9.53135 13.8632 10.4688 13.8638 10.4688 13.2432V13.0119H13.0501C13.6701 13.0119 13.6707 12.0744 13.0501 12.0744Z" fill="#D3222A"/>
</g>
<defs>
<clipPath id="clip0_449_280">
<rect width="20" height="20" fill="white"/>
</clipPath>
</defs>
</svg>
