<svg width="20" height="20" viewBox="0 0 20 20" fill="none" xmlns="http://www.w3.org/2000/svg">
<g clip-path="url(#clip0_449_286)">
<path d="M16.0093 9.69189V12.767" stroke="#D3222A" stroke-width="0.7" stroke-miterlimit="10" stroke-linecap="round" stroke-linejoin="round"/>
<path d="M16.0093 17.629V18.4778C16.0093 18.8755 15.6871 19.1977 15.2894 19.1977H1.01289C0.615234 19.1977 0.292969 18.8755 0.292969 18.4778V8.4917H12.0437" stroke="#D3222A" stroke-width="0.7" stroke-miterlimit="10" stroke-linecap="round" stroke-linejoin="round"/>
<path d="M1.86182 17.0751V13.3202C1.86182 13.0145 2.10971 12.7666 2.41545 12.7666H14.2498V17.6287H2.41545C2.10967 17.6287 1.86182 17.3808 1.86182 17.0751Z" stroke="#D3222A" stroke-width="0.7" stroke-miterlimit="10" stroke-linecap="round" stroke-linejoin="round"/>
<path d="M19.707 17.0751V13.3202C19.707 13.0145 19.4591 12.7666 19.1534 12.7666H14.2498V17.6287H19.1534C19.4591 17.6287 19.707 17.3808 19.707 17.0751Z" stroke="#D3222A" stroke-width="0.7" stroke-miterlimit="10" stroke-linecap="round" stroke-linejoin="round"/>
<path d="M0.292969 8.49179V6.31562C0.292969 5.91797 0.615234 5.5957 1.01289 5.5957H10.6941" stroke="#D3222A" stroke-width="0.7" stroke-miterlimit="10" stroke-linecap="round" stroke-linejoin="round"/>
<path d="M1.35425 7.04346H4.27827" stroke="#D3222A" stroke-width="0.7" stroke-miterlimit="10" stroke-linecap="round" stroke-linejoin="round"/>
<circle cx="14.9482" cy="9.75" r="0.292968" fill="#D3222A"/>
<path d="M15.1775 9.76903C17.6536 9.76903 19.6609 7.76174 19.6609 5.28564C19.6609 2.80953 17.6536 0.802246 15.1775 0.802246C12.7014 0.802246 10.6941 2.80953 10.6941 5.28564C10.6941 7.76174 12.7014 9.76903 15.1775 9.76903Z" stroke="#D3222A" stroke-width="0.7" stroke-miterlimit="10" stroke-linecap="round" stroke-linejoin="round"/>
<path d="M15.1776 9.76903C16.3523 9.76903 17.3046 7.76174 17.3046 5.28564C17.3046 2.80953 16.3523 0.802246 15.1776 0.802246C14.0028 0.802246 13.0505 2.80953 13.0505 5.28564C13.0505 7.76174 14.0028 9.76903 15.1776 9.76903Z" stroke="#D3222A" stroke-width="0.7" stroke-miterlimit="10" stroke-linecap="round" stroke-linejoin="round"/>
<path d="M15.1775 0.802246V9.76907" stroke="#D3222A" stroke-width="0.7" stroke-miterlimit="10" stroke-linecap="round" stroke-linejoin="round"/>
<path d="M10.6941 5.28564H19.6609" stroke="#D3222A" stroke-width="0.7" stroke-miterlimit="10" stroke-linecap="round" stroke-linejoin="round"/>
<path d="M3.28809 14.1353L3.72125 16.3252C3.73719 16.37 3.80074 16.3696 3.81605 16.3245L4.49242 14.1394" stroke="#D3222A" stroke-width="0.7" stroke-miterlimit="10" stroke-linecap="round" stroke-linejoin="round"/>
<path d="M4.49243 14.1353L5.16708 16.3252C5.18302 16.37 5.24657 16.3696 5.26188 16.3245L5.69677 14.1394" stroke="#D3222A" stroke-width="0.7" stroke-miterlimit="10" stroke-linecap="round" stroke-linejoin="round"/>
<path d="M6.89648 14.1353L7.32965 16.3252C7.34558 16.37 7.40914 16.3696 7.42445 16.3245L8.10082 14.1394" stroke="#D3222A" stroke-width="0.7" stroke-miterlimit="10" stroke-linecap="round" stroke-linejoin="round"/>
<path d="M8.10083 14.1353L8.77548 16.3252C8.79141 16.37 8.85497 16.3696 8.87028 16.3245L9.30516 14.1394" stroke="#D3222A" stroke-width="0.7" stroke-miterlimit="10" stroke-linecap="round" stroke-linejoin="round"/>
<path d="M10.5439 14.1353L10.9771 16.3252C10.993 16.37 11.0566 16.3696 11.0719 16.3245L11.7483 14.1394" stroke="#D3222A" stroke-width="0.7" stroke-miterlimit="10" stroke-linecap="round" stroke-linejoin="round"/>
<path d="M11.7483 14.1353L12.4229 16.3252C12.4389 16.37 12.5024 16.3696 12.5177 16.3245L12.9526 14.1394" stroke="#D3222A" stroke-width="0.7" stroke-miterlimit="10" stroke-linecap="round" stroke-linejoin="round"/>
<path d="M16.8364 15.9013C17.3987 15.9013 17.8544 15.4455 17.8544 14.8833C17.8544 14.321 17.3987 13.8652 16.8364 13.8652C16.2742 13.8652 15.8184 14.321 15.8184 14.8833C15.8184 15.4455 16.2742 15.9013 16.8364 15.9013Z" stroke="#D3222A" stroke-width="0.7" stroke-miterlimit="10" stroke-linecap="round" stroke-linejoin="round"/>
<path d="M17.5564 15.603L18.3503 16.3969" stroke="#D3222A" stroke-width="0.7" stroke-miterlimit="10" stroke-linecap="round" stroke-linejoin="round"/>
<path d="M1.86182 10H5.09466" stroke="#D3222A" stroke-width="0.7" stroke-miterlimit="10" stroke-linecap="round" stroke-linejoin="round"/>
<path d="M1.86182 11.2295H8.4493" stroke="#D3222A" stroke-width="0.7" stroke-miterlimit="10" stroke-linecap="round" stroke-linejoin="round"/>
</g>
<defs>
<clipPath id="clip0_449_286">
<rect width="20" height="20" fill="white"/>
</clipPath>
</defs>
</svg>
