<svg width="20" height="20" viewBox="0 0 20 20" fill="none" xmlns="http://www.w3.org/2000/svg">
<path d="M4.84831 13.0551C4.66423 13.0551 4.51497 13.2043 4.51497 13.3884V14.9887H3.27279C3.0887 14.9887 2.93945 15.1379 2.93945 15.322V17.6666C2.93945 17.8507 3.0887 17.9999 3.27279 17.9999H6.42383C6.60791 17.9999 6.75716 17.8507 6.75716 17.6666V15.322C6.75716 15.1379 6.60791 14.9887 6.42383 14.9887H5.18164V13.7218H9.66667V14.9887H8.42448C8.2404 14.9887 8.09115 15.1379 8.09115 15.322V17.6666C8.09115 17.8507 8.2404 17.9999 8.42448 17.9999H11.5755C11.7596 17.9999 11.9089 17.8507 11.9089 17.6666V15.322C11.9089 15.1379 11.7596 14.9887 11.5755 14.9887H10.3333V13.7218H14.8184V14.9887H13.5762C13.3921 14.9887 13.2428 15.1379 13.2428 15.322V17.6666C13.2428 17.8507 13.3921 17.9999 13.5762 17.9999H16.7272C16.9113 17.9999 17.0605 17.8507 17.0605 17.6666V15.322C17.0605 15.1379 16.9113 14.9887 16.7272 14.9887H15.485V13.3884C15.485 13.2043 15.3358 13.0551 15.1517 13.0551H10.3333V12.2663C10.6693 12.2444 11.0015 12.193 11.3244 12.1068C11.4506 12.0732 11.5747 12.033 11.6977 11.9899C11.7131 11.9845 11.7291 11.9809 11.7445 11.9753C12.009 11.8799 12.2647 11.7615 12.5101 11.6239C12.5226 11.6168 12.5359 11.6112 12.5485 11.6041C12.5704 11.5916 12.5908 11.5766 12.6125 11.5637C12.8456 11.426 13.0697 11.2719 13.2796 11.0974C13.282 11.0954 13.2828 11.0923 13.2851 11.0903C14.463 10.1145 15.1388 8.67552 15.1388 7.14008C15.1388 5.71413 14.5705 4.39111 13.5384 3.41488C12.5812 2.50244 11.3255 2 9.99463 2C8.66634 2.00358 7.41178 2.50635 6.46322 3.41455C6.46299 3.41475 6.46281 3.415 6.46259 3.4152C6.46232 3.41547 6.46202 3.41567 6.46175 3.41593C6.46159 3.4161 6.46155 3.4163 6.46139 3.41646C5.4281 4.39465 4.85889 5.71688 4.85889 7.13997C4.85893 8.6759 5.53713 10.1182 6.71891 11.0962C6.71948 11.0967 6.72009 11.097 6.72066 11.0975C6.72064 11.0975 6.72068 11.0975 6.72066 11.0975C6.72404 11.1003 6.72778 11.1027 6.73118 11.1055C7.26471 11.5467 7.88212 11.8688 8.54032 12.0638C8.90601 12.1724 9.28328 12.241 9.66667 12.2662V13.0551H4.84831ZM6.09049 15.6554V17.3333H3.60612V15.6554H6.09049ZM16.3939 15.6554V17.3333H13.9095V15.6554H16.3939ZM12.2226 11.0221C12.207 11.031 12.1907 11.0385 12.175 11.0472C12.086 11.0968 11.9956 11.1439 11.9035 11.1873C11.8648 11.2055 11.8252 11.2213 11.7861 11.2384C11.7141 11.2697 11.6418 11.3003 11.5682 11.3278C11.5592 11.3312 11.5499 11.334 11.5408 11.3374C11.706 11.1089 11.857 10.8418 11.9915 10.5383C12.1706 10.6274 12.3447 10.727 12.511 10.8399C12.4169 10.9041 12.3211 10.9656 12.2226 11.0221ZM11.9391 7.28977C11.9237 7.25265 11.918 7.21136 11.9148 7.16958C11.9139 7.1594 11.9089 7.15051 11.9089 7.14018C11.9089 7.08714 11.92 7.03666 11.9392 6.99046C11.9901 6.87006 12.1037 6.78522 12.2422 6.76017C12.2622 6.75704 12.2801 6.74829 12.3009 6.74829C12.446 6.74829 12.5678 6.83105 12.6356 6.94841C12.6684 7.00594 12.6922 7.06901 12.6922 7.13997C12.6922 7.24524 12.6498 7.33995 12.5828 7.4106C12.5114 7.48509 12.4121 7.53247 12.3009 7.53247C12.2572 7.53247 12.2168 7.52077 12.1774 7.50747C12.1674 7.50397 12.1558 7.50431 12.1461 7.50002C12.1172 7.48751 12.0938 7.46672 12.069 7.44796C12.0535 7.4361 12.0352 7.4281 12.0216 7.41414C12.0072 7.3995 11.9992 7.37996 11.9872 7.36324C11.9702 7.33929 11.9505 7.31716 11.9391 7.28977ZM13.0447 10.4063C12.7869 10.2162 12.5138 10.0505 12.227 9.91256C12.3977 9.38086 12.5176 8.78569 12.5802 8.15808C12.7806 8.10282 12.956 7.99117 13.0901 7.83927C13.1838 7.73368 13.2553 7.61009 13.301 7.47339H14.4538C14.3707 8.59819 13.8708 9.63924 13.0447 10.4063ZM14.4555 6.80672H13.3008C13.2718 6.72009 13.2352 6.63719 13.186 6.56213C13.047 6.34896 12.8329 6.19234 12.5824 6.12268C12.5356 5.6452 12.4541 5.18479 12.3385 4.74719C12.6748 4.57489 12.9927 4.36444 13.2882 4.1168C13.976 4.85933 14.3821 5.7947 14.4555 6.80672ZM11.5825 2.95772C11.6358 2.97793 11.6887 2.99935 11.7412 3.02159C11.8125 3.0518 11.8829 3.08415 11.9526 3.1181C12.0034 3.14286 12.0541 3.16789 12.104 3.19462C12.1739 3.23208 12.2423 3.27246 12.3103 3.31372C12.357 3.34208 12.4042 3.36973 12.4499 3.39988C12.5208 3.44657 12.5894 3.49707 12.6578 3.54795C12.6977 3.57764 12.7386 3.60565 12.7776 3.63674C12.786 3.64345 12.7937 3.65122 12.8021 3.658C12.593 3.82727 12.3679 3.96779 12.1361 4.0946C11.9702 3.64445 11.7696 3.25798 11.5421 2.94377C11.5555 2.94867 11.5692 2.95268 11.5825 2.95772ZM9.99996 2.66685C10.0003 2.66685 10.0007 2.66679 10.0011 2.66679C10.5794 2.66925 11.149 3.31999 11.5271 4.37762C10.7458 4.66077 9.88643 4.72276 9.08203 4.54972C9.08219 4.54435 9.08219 4.53898 9.08219 4.53345C9.08219 4.46834 9.07422 4.40466 9.06266 4.34206C9.0611 4.33358 9.06093 4.32473 9.05918 4.31632C9.05688 4.30538 9.05241 4.29527 9.04976 4.28442C9.03874 4.2391 9.02476 4.19501 9.008 4.15186C9.00299 4.139 8.99935 4.12563 8.99386 4.11302C8.99162 4.10785 8.98958 4.10268 8.98726 4.09755C8.9632 4.04439 8.93492 3.99349 8.90255 3.94507C8.89952 3.94053 8.89583 3.9366 8.89272 3.93213C8.89217 3.93134 8.89152 3.9306 8.89097 3.92981C8.88228 3.91732 8.8727 3.90578 8.86348 3.89368C8.83842 3.86072 8.81185 3.82918 8.78302 3.79926C8.77409 3.79002 8.76501 3.78121 8.75578 3.77232C8.74919 3.76595 8.74438 3.75808 8.73763 3.75187C9.09857 3.06106 9.5494 2.66945 9.99996 2.66685ZM8.50958 5.47013C8.53408 5.4573 8.55817 5.44407 8.58158 5.42942C8.60305 5.41598 8.62372 5.40202 8.64412 5.38715C8.66954 5.36865 8.69364 5.34869 8.71735 5.32804C8.72738 5.31927 8.73769 5.31101 8.74742 5.30188C8.75909 5.29085 8.77112 5.28048 8.78231 5.26892C8.79946 5.25132 8.81482 5.23204 8.83075 5.21328C8.83754 5.20526 8.84479 5.19784 8.85134 5.18962C8.85384 5.18648 8.85675 5.18374 8.85921 5.18058C9.23063 5.26721 9.61344 5.3134 10.0021 5.3134C10.5927 5.3134 11.1656 5.20978 11.713 5.01554C11.8039 5.37952 11.8781 5.75531 11.9185 6.14998C11.907 6.1544 11.8966 6.16087 11.8853 6.16567C11.867 6.17344 11.8496 6.18223 11.8318 6.19098C11.793 6.21014 11.7558 6.23145 11.7198 6.25505C11.7037 6.26563 11.6876 6.27574 11.6721 6.28715C11.6312 6.31736 11.5928 6.35046 11.5568 6.38615C11.5498 6.39307 11.5419 6.39886 11.5351 6.40597C11.4934 6.44967 11.456 6.49725 11.4222 6.54765C11.4132 6.56101 11.4061 6.57542 11.3977 6.58923C11.3744 6.62775 11.3532 6.66744 11.3348 6.70898C11.3265 6.7278 11.3191 6.74681 11.3119 6.76619C11.3068 6.77989 11.3001 6.79277 11.2956 6.80672H8.04563C8.05975 6.3903 8.09247 5.97949 8.15885 5.58423C8.1627 5.58372 8.16636 5.58246 8.17021 5.58191C8.1854 5.57971 8.20013 5.57599 8.21519 5.57312C8.2301 5.57037 8.24465 5.56718 8.25934 5.5638C8.27883 5.5592 8.29826 5.55481 8.31738 5.54913C8.33643 5.54348 8.35476 5.53636 8.37341 5.52966C8.38601 5.52515 8.39891 5.52146 8.41132 5.5165C8.42879 5.50956 8.44562 5.50191 8.46261 5.4941C8.4786 5.48667 8.49398 5.47833 8.50958 5.47013ZM8.02311 4.92586C7.97882 4.92586 7.93793 4.91418 7.89817 4.90057C7.88255 4.89512 7.86692 4.88991 7.85232 4.88261C7.82477 4.86902 7.80025 4.85105 7.77681 4.83164C7.76292 4.81995 7.74807 4.80941 7.73594 4.79594C7.71724 4.77543 7.70355 4.75114 7.68947 4.72703C7.67934 4.70941 7.66681 4.69334 7.65946 4.67421C7.64779 4.64412 7.6439 4.61096 7.63997 4.57786C7.6382 4.56274 7.63216 4.54889 7.63216 4.53337C7.63216 4.52897 7.63357 4.52476 7.63371 4.52037C7.63521 4.47791 7.64414 4.43758 7.65816 4.39958C7.66152 4.39012 7.66443 4.38059 7.6685 4.37138C7.6792 4.3481 7.69605 4.3291 7.7109 4.30855C7.72681 4.28689 7.74125 4.2639 7.76113 4.24632C7.7749 4.23376 7.79195 4.22561 7.80739 4.21509C7.83423 4.19747 7.86084 4.17928 7.89081 4.16831C7.90904 4.16168 7.92922 4.1605 7.94859 4.15662C7.97618 4.15078 8.00354 4.14325 8.03139 4.14319C8.13169 4.14541 8.22201 4.18557 8.29024 4.24969C8.29879 4.25781 8.3057 4.26717 8.31348 4.27596C8.33626 4.30162 8.35545 4.33012 8.37095 4.3611C8.37679 4.37282 8.38298 4.38432 8.38761 4.39659C8.40385 4.43955 8.41536 4.48505 8.41536 4.53361C8.41536 4.58516 8.40409 4.63391 8.38595 4.67906C8.38053 4.69216 8.37162 4.70286 8.36493 4.71517C8.35026 4.74255 8.3338 4.76864 8.31331 4.79165C8.30074 4.8057 8.2865 4.81775 8.2722 4.82985C8.25065 4.84796 8.22746 4.86379 8.20235 4.87699C8.18803 4.88462 8.17395 4.89258 8.15879 4.89842C8.11617 4.91433 8.07121 4.92586 8.02311 4.92586ZM7.22251 3.63682C7.26076 3.60626 7.30096 3.57872 7.34009 3.54952C7.40867 3.49835 7.47754 3.44763 7.54873 3.4007C7.59379 3.37099 7.64026 3.34379 7.68632 3.3158C7.75468 3.27427 7.82351 3.23358 7.89394 3.19588C7.94303 3.1696 7.99298 3.14502 8.04303 3.12063C8.11365 3.0862 8.185 3.05343 8.25737 3.02283C8.3087 3.00114 8.36033 2.98022 8.41248 2.96047C8.42572 2.95546 8.43937 2.95146 8.45268 2.94657C8.33862 3.10561 8.23202 3.28605 8.13139 3.4825C8.12026 3.48149 8.10905 3.48169 8.09788 3.48102C8.07241 3.47923 8.04803 3.47331 8.02214 3.47331C7.95199 3.47331 7.88371 3.48248 7.81665 3.49573C7.81201 3.49664 7.80745 3.49766 7.80284 3.49864C7.67377 3.52594 7.55233 3.57611 7.44358 3.64766C7.42983 3.65647 7.41707 3.6665 7.40379 3.67596C7.38025 3.69309 7.35697 3.71037 7.33484 3.72947C7.32768 3.73562 7.31948 3.74048 7.3125 3.74683C7.27411 3.71788 7.23608 3.68813 7.19845 3.65774C7.20667 3.65106 7.21425 3.64343 7.22251 3.63682ZM6.7134 4.11623C6.802 4.19035 6.89266 4.26003 6.98521 4.32727C6.97194 4.39408 6.96436 4.46295 6.96436 4.53361C6.96436 4.56427 6.97085 4.59316 6.97341 4.62317C6.97636 4.65767 6.9776 4.69253 6.98383 4.72611C6.99034 4.76123 7.00134 4.79431 7.01123 4.82815C7.01959 4.85679 7.02704 4.8856 7.0377 4.91327C7.05003 4.94515 7.06508 4.97514 7.08032 5.00543C7.09434 5.03351 7.10864 5.06108 7.12504 5.08773C7.14128 5.11393 7.15861 5.13888 7.17698 5.16349C7.19853 5.19259 7.22146 5.22013 7.24583 5.24689C7.26322 5.26583 7.28048 5.28448 7.29917 5.30212C7.33112 5.3325 7.36536 5.3599 7.40094 5.38615C7.416 5.3972 7.43026 5.40896 7.4459 5.41921C7.46594 5.43241 7.48637 5.44468 7.50734 5.45652C7.43296 5.89437 7.38804 6.34597 7.37347 6.80672H5.54226C5.61591 5.79622 6.02303 4.8611 6.7134 4.11623ZM5.54393 7.47339H7.3786C7.40629 8.35205 7.54189 9.18107 7.77708 9.91123C7.48869 10.0496 7.21391 10.2162 6.95455 10.4073C6.12809 9.63908 5.62728 8.59723 5.54393 7.47339ZM7.51622 10.8588C7.50696 10.8526 7.49723 10.8473 7.488 10.8409C7.65489 10.7277 7.82975 10.6279 8.0095 10.5386C8.14396 10.8418 8.29468 11.1086 8.45953 11.3368C8.12838 11.2152 7.81128 11.0558 7.51622 10.8588ZM8.3894 9.66563C8.18679 9.01508 8.0659 8.25641 8.03884 7.47339H11.2956C11.3003 7.48789 11.3072 7.5013 11.3125 7.51552C11.3193 7.53363 11.3262 7.55141 11.334 7.56903C11.354 7.61452 11.3771 7.65796 11.403 7.69979C11.409 7.70949 11.414 7.71975 11.4203 7.72923C11.491 7.83563 11.5809 7.9271 11.6847 8.00147C11.6908 8.00578 11.697 8.0097 11.7032 8.0139C11.7525 8.04769 11.8046 8.07721 11.8596 8.10236C11.864 8.10437 11.8682 8.10661 11.8727 8.10856C11.888 8.1153 11.9021 8.12394 11.9178 8.12996C11.861 8.67971 11.7546 9.19879 11.6089 9.66451C11.0931 9.49428 10.5511 9.40145 10.001 9.40145C9.44991 9.40145 8.90654 9.49461 8.3894 9.66563ZM8.62455 10.2878C9.06669 10.1446 9.53084 10.0681 10.001 10.0681C10.4711 10.0681 10.935 10.1445 11.3765 10.2874C11.004 11.1199 10.5028 11.6105 9.99972 11.6132C9.99943 11.6132 9.99915 11.6133 9.99886 11.6133C9.99856 11.6133 9.99829 11.6132 9.99799 11.6132C9.49827 11.6127 8.99788 11.1223 8.62455 10.2878ZM11.2422 15.6554V17.3333H8.75781V15.6554H11.2422Z" fill="#D3222A"/>
</svg>
