<svg width="20" height="20" viewBox="0 0 20 20" fill="none" xmlns="http://www.w3.org/2000/svg">
<g clip-path="url(#clip0_449_10)">
<path d="M19.0901 13.8726H17.4906V11.0871C17.4906 10.9354 17.3673 10.8122 17.2156 10.8122H10.2571V9.52522C10.9822 9.48288 11.6827 9.25938 12.2971 8.87142C12.85 8.52226 13.3142 8.05317 13.657 7.50156C13.9475 7.85896 14.1846 8.11874 14.2522 8.19176C14.3044 8.24806 14.3774 8.28011 14.4541 8.28011C14.5307 8.28011 14.6039 8.24806 14.6559 8.19176C14.8663 7.96459 16.7112 5.93807 16.7112 4.76929C16.7112 3.52474 15.6987 2.51228 14.4541 2.51228C14.1118 2.51228 13.7874 2.58919 13.4965 2.72606C12.6887 1.59927 11.4046 0.935059 10.0044 0.935059C7.63389 0.935059 5.70544 2.86362 5.70544 5.23403C5.70544 7.50454 7.47482 9.36935 9.7071 9.52259V10.8122H6.08081C5.92883 10.8122 5.80569 10.9352 5.80569 11.0871C5.80569 11.2391 5.92883 11.3622 6.08081 11.3622H9.7071V13.8726H8.05492C7.90305 13.8726 7.77991 13.9959 7.77991 14.1476V15.9926C7.77991 16.1446 7.90305 16.2676 8.05492 16.2676C8.20678 16.2676 8.32992 16.1446 8.32992 15.9926V14.4227H12.4159V15.2995H9.80277C9.65091 15.2995 9.52777 15.4226 9.52777 15.5746V17.3571C9.52777 17.5089 9.65091 17.632 9.80277 17.632H12.4159V18.5088H8.32992V17.1478C8.32992 16.9959 8.20678 16.8727 8.05492 16.8727C7.90305 16.8727 7.77991 16.9959 7.77991 17.1478V18.7837C7.77991 18.9357 7.90305 19.0588 8.05492 19.0588H12.691C12.8428 19.0588 12.9659 18.9357 12.9659 18.7837V14.1477C12.9659 13.9959 12.8428 13.8726 12.691 13.8726H10.2571V11.3622H16.9405V13.8726H14.4541C14.3022 13.8726 14.1792 13.9959 14.1792 14.1477V18.7837C14.1792 18.9357 14.3022 19.0588 14.4541 19.0588H19.0901C19.2421 19.0588 19.3652 18.9357 19.3652 18.7837V14.1477C19.3652 13.9959 19.2421 13.8726 19.0901 13.8726ZM8.95866 6.79272C9.29649 6.82178 9.64702 6.83712 10.0044 6.83712C10.36 6.83712 10.7112 6.82156 11.0504 6.79192C10.8387 8.1778 10.3678 8.98312 10.0044 8.98312C9.6413 8.983 9.17037 8.17802 8.95866 6.79272ZM8.84685 5.23403C8.84685 4.87846 8.86275 4.54395 8.89114 4.23233C9.2308 4.19994 9.60159 4.18118 10.0044 4.18118C10.385 4.18118 10.7595 4.19971 11.1179 4.23462C11.1463 4.54556 11.1621 4.87926 11.1621 5.23403C11.1621 5.5888 11.1463 5.92239 11.118 6.23344C10.7602 6.26835 10.3856 6.28689 10.0045 6.28689C9.60159 6.28689 9.2308 6.26835 8.89114 6.23596C8.86275 5.92434 8.84685 5.58983 8.84685 5.23403ZM8.33484 6.16695C6.96452 5.95387 6.25545 5.50663 6.25545 5.23403C6.25545 4.96155 6.96452 4.51443 8.33484 4.30134C8.31001 4.60426 8.29673 4.91646 8.29673 5.23403C8.29673 5.55183 8.31001 5.86403 8.33484 6.16695ZM10.0044 1.48518C10.3678 1.48518 10.8385 2.29038 11.0504 3.67615C10.711 3.64662 10.3598 3.63117 10.0044 3.63117C9.64702 3.63117 9.29649 3.64651 8.95866 3.67558C9.17037 2.29027 9.6413 1.48518 10.0044 1.48518ZM12.5925 5.96474C12.3159 6.04542 12.0062 6.11214 11.6743 6.16364C11.6991 5.86174 11.7121 5.55069 11.7121 5.23403C11.7121 4.91737 11.6991 4.60609 11.6743 4.30408C11.8664 4.33395 12.0507 4.36909 12.2262 4.40891C12.2072 4.52644 12.1971 4.64672 12.1971 4.76929C12.1971 5.11559 12.359 5.53707 12.5925 5.96474ZM10.9579 8.86124C11.0684 8.68065 11.1761 8.45417 11.2765 8.17173C11.4258 7.75276 11.5388 7.26181 11.6125 6.72806C12.0799 6.6626 12.5118 6.56887 12.8839 6.45042C13.0151 6.65241 13.155 6.84982 13.2932 7.0351C12.7899 7.95475 11.9444 8.60477 10.9579 8.86124ZM16.1611 4.76929C16.1611 4.99062 16.0398 5.52677 15.2268 6.63044C14.9358 7.02538 14.642 7.37522 14.4541 7.59129C14.2663 7.37522 13.9725 7.02538 13.6815 6.63044C12.8685 5.52677 12.7471 4.99062 12.7471 4.76929C12.7471 3.82801 13.5128 3.06229 14.4541 3.06229C15.3954 3.06229 16.1611 3.82801 16.1611 4.76929ZM13.0298 3.01994C12.7494 3.24871 12.525 3.54317 12.38 3.87997C12.1387 3.82401 11.8815 3.77686 11.6125 3.7392C11.5387 3.20591 11.4258 2.71507 11.2765 2.29656C11.1759 2.01366 11.0683 1.7873 10.9577 1.60648C11.7849 1.82163 12.515 2.3151 13.0298 3.01994ZM9.04998 1.60843C8.93977 1.78902 8.83266 2.01481 8.73229 2.29656C8.58329 2.71507 8.47022 3.20557 8.39652 3.73875C7.90912 3.80684 7.46005 3.90629 7.0729 4.034C6.77993 4.13071 6.54739 4.23496 6.36291 4.34231C6.68906 3.01125 7.72773 1.95679 9.04998 1.60843ZM6.36302 6.12598C6.54739 6.23333 6.77993 6.33759 7.0729 6.43429C7.46005 6.562 7.90912 6.66145 8.39652 6.72966C8.47022 7.26273 8.58329 7.75333 8.73229 8.17173C8.83254 8.45348 8.93977 8.67928 9.04998 8.85986C7.72773 8.51139 6.68906 7.45705 6.36302 6.12598ZM10.0778 17.082V15.8495H12.4159V17.082H10.0778ZM14.7292 18.5088V14.4227H18.8152V15.2995H16.2021C16.0501 15.2995 15.927 15.4226 15.927 15.5746V17.3571C15.927 17.5089 16.0501 17.632 16.2021 17.632H18.8152V18.5088H14.7292ZM18.8152 17.082H16.477V15.8495H18.8152V17.082Z" fill="#5E5E5E"/>
<path d="M5.52635 13.8724H3.02376V11.362H4.85229C5.00416 11.362 5.12741 11.2389 5.12741 11.0869C5.12741 10.9352 5.00416 10.812 4.85229 10.812H2.74864C2.59678 10.812 2.47364 10.9352 2.47364 11.0869V13.8724H0.89035C0.738373 13.8724 0.615234 13.9956 0.615234 14.1475V18.7835C0.615234 18.9355 0.738373 19.0586 0.89035 19.0586H5.52635C5.67822 19.0586 5.80124 18.9355 5.80124 18.7835V14.1475C5.80124 13.9956 5.67822 13.8724 5.52635 13.8724ZM1.16524 18.5086V14.4225H5.25124V15.2992H2.63809C2.48623 15.2992 2.3632 15.4224 2.3632 15.5744V17.3569C2.3632 17.5086 2.48623 17.6318 2.63809 17.6318H5.25124V18.5086H1.16524ZM5.25124 17.0818H2.91321V15.8492H5.25124V17.0818Z" fill="#5E5E5E"/>
<path d="M14.457 5.82526C15.0215 5.82526 15.481 5.3659 15.481 4.80125C15.481 4.23671 15.0216 3.77734 14.457 3.77734C13.8925 3.77734 13.4329 4.23671 13.4329 4.80125C13.4329 5.3659 13.8925 5.82526 14.457 5.82526ZM14.457 4.32735C14.7183 4.32735 14.9309 4.53998 14.9309 4.80125C14.9309 5.06263 14.7183 5.27526 14.457 5.27526C14.1957 5.27526 13.9831 5.06263 13.9831 4.80125C13.9831 4.53998 14.1957 4.32735 14.457 4.32735Z" fill="#5E5E5E"/>
</g>
<defs>
<clipPath id="clip0_449_10">
<rect width="20" height="20" fill="white"/>
</clipPath>
</defs>
</svg>
