<svg width="20" height="20" viewBox="0 0 20 20" fill="none" xmlns="http://www.w3.org/2000/svg">
<g clip-path="url(#clip0_449_81)">
<path d="M19.561 12.9335L18.8043 12.6315C18.6998 12.263 18.5529 11.9079 18.3667 11.5732L18.687 10.8232C18.7367 10.7118 18.7541 10.5887 18.7372 10.468C18.7203 10.3472 18.6699 10.2336 18.5917 10.1402C18.4833 10.0068 18.3667 9.88315 18.241 9.75449C18.118 9.63449 17.9927 9.51782 17.8663 9.41349C17.7726 9.33393 17.6584 9.28236 17.5367 9.26467C17.415 9.24699 17.2908 9.2639 17.1783 9.31349L16.661 9.53482C16.6313 8.73466 16.3407 7.96617 15.8335 7.34663C15.3262 6.72708 14.6302 6.29049 13.8517 6.10349C14.2733 5.82333 14.6255 5.45074 14.8814 5.01405C15.1374 4.57735 15.2905 4.08804 15.329 3.58331C15.3675 3.07858 15.2904 2.57171 15.1037 2.10123C14.9169 1.63076 14.6253 1.20906 14.2511 0.868186C13.8768 0.527315 13.4298 0.276245 12.944 0.134062C12.4582 -0.00812206 11.9463 -0.0376776 11.4474 0.0476415C10.9484 0.132961 10.4755 0.330909 10.0645 0.62644C9.65355 0.92197 9.31537 1.3073 9.07567 1.75315C8.58748 1.638 8.07919 1.638 7.591 1.75315C7.35093 1.30814 7.01264 0.923672 6.6018 0.628924C6.19096 0.334176 5.71837 0.136899 5.2199 0.0520653C4.72143 -0.032768 4.21019 -0.00292689 3.72498 0.139323C3.23976 0.281574 2.79334 0.532494 2.41958 0.873039C2.04582 1.21358 1.75455 1.6348 1.56789 2.10472C1.38123 2.57464 1.30407 3.08091 1.34228 3.5851C1.38049 4.08928 1.53307 4.57814 1.78842 5.01456C2.04377 5.45098 2.39519 5.82349 2.816 6.10382C2.01485 6.29551 1.30148 6.75115 0.790696 7.39744C0.279908 8.04372 0.00140436 8.84306 0 9.66682L0 11.6668C0 12.0204 0.140476 12.3596 0.390524 12.6096C0.640573 12.8597 0.979711 13.0002 1.33333 13.0002H3.66667V13.3335C3.66667 13.6871 3.80714 14.0262 4.05719 14.2763C4.30724 14.5263 4.64638 14.6668 5 14.6668H8.05867C8.09011 14.7566 8.14028 14.8387 8.20585 14.9077C8.27142 14.9767 8.35089 15.0309 8.439 15.0668L9.19567 15.3688C9.30022 15.7373 9.44709 16.0924 9.63333 16.4272L9.313 17.1772C9.26334 17.2885 9.24594 17.4116 9.2628 17.5323C9.27965 17.6531 9.33008 17.7667 9.40833 17.8602C9.51667 17.9935 9.63333 18.1172 9.759 18.2458C9.882 18.3658 10.0073 18.4825 10.1337 18.5868C10.2274 18.6664 10.3416 18.7179 10.4633 18.7356C10.585 18.7533 10.7092 18.7364 10.8217 18.6868L11.572 18.3662C11.9063 18.5527 12.2611 18.6999 12.6293 18.8048L12.932 19.5628C12.9771 19.6753 13.0521 19.7733 13.1487 19.8464C13.2454 19.9194 13.3602 19.9648 13.4807 19.9775C13.6383 19.9932 13.808 20.0005 13.999 20.0005C14.19 20.0005 14.3597 19.9932 14.514 19.9778C14.6354 19.9654 14.751 19.92 14.8484 19.8466C14.9459 19.7731 15.0213 19.6744 15.0667 19.5612L15.3687 18.8045C15.7372 18.6999 16.0923 18.5531 16.427 18.3668L17.177 18.6872C17.2883 18.7368 17.4114 18.7542 17.5322 18.7374C17.6529 18.7205 17.7665 18.6701 17.86 18.5918C17.9933 18.4835 18.117 18.3668 18.2457 18.2412C18.3657 18.1182 18.4823 17.9928 18.5867 17.8665C18.6662 17.7728 18.7178 17.6585 18.7355 17.5368C18.7532 17.4152 18.7362 17.291 18.6867 17.1785L18.3667 16.4272C18.5532 16.0928 18.7004 15.738 18.8053 15.3698L19.5633 15.0672C19.6758 15.022 19.7738 14.9471 19.8469 14.8504C19.9199 14.7537 19.9653 14.639 19.978 14.5185C19.9937 14.3608 20.001 14.1912 20.001 14.0002C20.001 13.8092 19.9937 13.6395 19.9783 13.4852C19.9657 13.3639 19.9201 13.2484 19.8465 13.1512C19.773 13.0539 19.6742 12.9787 19.561 12.9335ZM13 6.66682C13.7527 6.66794 14.4775 6.95173 15.0308 7.46198C15.5842 7.97222 15.9257 8.67169 15.9877 9.42182C15.7869 9.33295 15.5804 9.25746 15.3697 9.19582L15.0667 8.43782C15.0215 8.32536 14.9466 8.22734 14.8499 8.15428C14.7533 8.08121 14.6385 8.03588 14.518 8.02315C14.1742 7.99249 13.8284 7.99249 13.4847 8.02315C13.3636 8.03575 13.2483 8.08115 13.1511 8.15446C13.054 8.22777 12.9787 8.3262 12.9333 8.43915L12.6313 9.19582C12.541 9.22149 12.4547 9.25749 12.3647 9.28815C11.8512 8.52784 11.0717 7.98726 10.1797 7.77282C10.6331 7.47046 11.0062 7.06226 11.2667 6.58349C11.5072 6.63846 11.7532 6.66641 12 6.66682H13ZM12 0.66682C12.3723 0.663485 12.7411 0.738133 13.0828 0.885959C13.4245 1.03379 13.7314 1.25151 13.9838 1.52513C14.2363 1.79875 14.4286 2.12219 14.5485 2.47464C14.6684 2.82709 14.7132 3.20074 14.6799 3.57153C14.6467 3.94233 14.5361 4.30205 14.3555 4.62755C14.1748 4.95305 13.928 5.23711 13.6309 5.46146C13.3338 5.6858 12.993 5.84545 12.6305 5.93014C12.268 6.01482 11.8917 6.02266 11.526 5.95315C11.7578 5.18211 11.7017 4.35311 11.3682 3.62031C11.0346 2.88751 10.4463 2.30076 9.71267 1.96915C9.94823 1.57234 10.283 1.24362 10.684 1.01529C11.085 0.786958 11.5385 0.66687 12 0.66682ZM11 5.00015C11 5.52757 10.8436 6.04314 10.5506 6.48167C10.2576 6.9202 9.84109 7.262 9.35382 7.46383C8.86655 7.66567 8.33038 7.71847 7.81309 7.61558C7.29581 7.51269 6.82066 7.25871 6.44772 6.88577C6.07478 6.51283 5.8208 6.03768 5.71791 5.52039C5.61501 5.00311 5.66782 4.46693 5.86965 3.97966C6.07149 3.49239 6.41328 3.07592 6.85181 2.7829C7.29034 2.48988 7.80592 2.33349 8.33333 2.33349C9.04033 2.33428 9.71815 2.61549 10.2181 3.11541C10.718 3.61534 10.9992 4.29315 11 5.00015ZM2 3.33349C1.99957 2.74981 2.19083 2.18214 2.54437 1.71771C2.89791 1.25329 3.39418 0.917814 3.95691 0.762838C4.51964 0.607862 5.11769 0.641964 5.65916 0.859901C6.20062 1.07784 6.65554 1.46755 6.954 1.96915C6.22032 2.30076 5.63202 2.88751 5.29848 3.62031C4.96494 4.35311 4.90886 5.18211 5.14067 5.95315C4.7564 6.02666 4.36061 6.01397 3.98184 5.91601C3.60307 5.81804 3.25076 5.63724 2.95032 5.38664C2.64988 5.13604 2.4088 4.82189 2.24447 4.46684C2.08013 4.1118 1.99663 3.72471 2 3.33349ZM3.66667 11.3335V12.3335H1.33333C1.15652 12.3335 0.986953 12.2632 0.861929 12.1382C0.736905 12.0132 0.666667 11.8436 0.666667 11.6668V9.66682C0.667549 8.87144 0.983903 8.10889 1.54632 7.54647C2.10874 6.98406 2.87129 6.6677 3.66667 6.66682H4.66667C4.91345 6.66641 5.15942 6.63846 5.4 6.58349C5.65918 7.06086 6.03036 7.46819 6.48167 7.77049C5.6807 7.96237 4.96756 8.4181 4.45697 9.06436C3.94638 9.71063 3.66802 10.5099 3.66667 11.3335ZM8.43767 12.9335C8.32521 12.9786 8.22718 13.0536 8.15412 13.1502C8.08106 13.2469 8.03573 13.3616 8.023 13.4822C8.00733 13.6395 8 13.8092 8 14.0002H5C4.82319 14.0002 4.65362 13.9299 4.5286 13.8049C4.40357 13.6799 4.33333 13.5103 4.33333 13.3335V11.3335C4.33422 10.5381 4.65057 9.77556 5.21299 9.21314C5.77541 8.65072 6.53795 8.33437 7.33333 8.33349H9.33333C9.80213 8.33468 10.2641 8.44554 10.6824 8.65721C11.1007 8.86887 11.4637 9.17547 11.7423 9.55249C11.6863 9.58115 11.628 9.60382 11.573 9.63449L10.823 9.31415C10.7116 9.26457 10.5886 9.24722 10.4679 9.26407C10.3471 9.28092 10.2335 9.3313 10.14 9.40949C10.0067 9.51782 9.883 9.63449 9.75433 9.76015C9.63433 9.88315 9.51767 10.0085 9.41333 10.1348C9.33377 10.2286 9.2822 10.3428 9.26452 10.4645C9.24684 10.5861 9.26375 10.7103 9.31333 10.8228L9.634 11.5732C9.44748 11.9075 9.30028 12.2623 9.19533 12.6305L8.43767 12.9335ZM19.3133 14.4488L18.4017 14.8128C18.3525 14.8325 18.3087 14.8635 18.2739 14.9035C18.2391 14.9434 18.2144 14.9911 18.2017 15.0425C18.098 15.4621 17.9316 15.8636 17.708 16.2335C17.6808 16.2787 17.6646 16.3298 17.661 16.3825C17.6573 16.4351 17.6663 16.4879 17.687 16.5365L18.0763 17.4365C17.9797 17.5535 17.8763 17.6652 17.7743 17.7698C17.665 17.8765 17.5533 17.9808 17.439 18.0742L16.535 17.6882C16.4864 17.6674 16.4336 17.6585 16.381 17.6621C16.3283 17.6658 16.2772 17.6819 16.232 17.7092C15.8625 17.9326 15.4615 18.099 15.0423 18.2028C14.9909 18.2155 14.9433 18.2403 14.9033 18.2751C14.8634 18.3098 14.8323 18.3536 14.8127 18.4028L14.453 19.3135C14.1536 19.3404 13.8524 19.3404 13.553 19.3135L13.189 18.4018C13.1694 18.3526 13.1383 18.3088 13.0983 18.2741C13.0584 18.2393 13.0108 18.2145 12.9593 18.2018C12.5392 18.0983 12.1371 17.9319 11.7667 17.7082C11.7147 17.6767 11.6551 17.6602 11.5943 17.6602C11.5494 17.6602 11.5049 17.6694 11.4637 17.6872L10.5637 18.0765C10.4467 17.9798 10.335 17.8765 10.2303 17.7745C10.1237 17.6652 10.0193 17.5535 9.926 17.4392L10.312 16.5352C10.3328 16.4866 10.3417 16.4338 10.338 16.3811C10.3344 16.3284 10.3183 16.2774 10.291 16.2322C10.0685 15.8625 9.90297 15.4615 9.8 15.0425C9.78731 14.9911 9.76254 14.9434 9.72776 14.9035C9.69298 14.8635 9.64918 14.8325 9.6 14.8128L8.68667 14.4532C8.67333 14.3175 8.66667 14.1695 8.66667 14.0002C8.6658 13.8504 8.67248 13.7006 8.68667 13.5515L9.6 13.1875C9.64918 13.1678 9.69298 13.1368 9.72776 13.0968C9.76254 13.0569 9.78731 13.0092 9.8 12.9578C9.90316 12.5383 10.069 12.1368 10.292 11.7668C10.3193 11.7216 10.3354 11.6705 10.339 11.6179C10.3427 11.5652 10.3338 11.5124 10.313 11.4638L9.92367 10.5638C10.0203 10.4468 10.1237 10.3352 10.2257 10.2305C10.335 10.1238 10.4467 10.0195 10.561 9.92615L11.4667 10.3132C11.5152 10.3339 11.568 10.3428 11.6207 10.3392C11.6734 10.3355 11.7244 10.3194 11.7697 10.2922C12.1387 10.0695 12.5392 9.9036 12.9577 9.80015C13.0091 9.78746 13.0567 9.7627 13.0967 9.72791C13.1366 9.69313 13.1677 9.64934 13.1873 9.60015L13.547 8.68849C13.8464 8.66159 14.1476 8.66159 14.447 8.68849L14.8127 9.60015C14.8323 9.64934 14.8634 9.69313 14.9033 9.72791C14.9433 9.7627 14.9909 9.78746 15.0423 9.80015C15.4618 9.90331 15.8633 10.0692 16.2333 10.2922C16.2786 10.3194 16.3296 10.3355 16.3823 10.3392C16.435 10.3428 16.4878 10.3339 16.5363 10.3132L17.4363 9.92382C17.5533 10.0205 17.665 10.1238 17.7697 10.2258C17.8763 10.3352 17.9807 10.4468 18.074 10.5612L17.687 11.4668C17.6663 11.5154 17.6573 11.5682 17.661 11.6209C17.6646 11.6735 17.6808 11.7246 17.708 11.7698C17.9314 12.1393 18.0979 12.5404 18.2017 12.9595C18.2144 13.0109 18.2391 13.0586 18.2739 13.0985C18.3087 13.1384 18.3525 13.1695 18.4017 13.1892L19.3133 13.5488C19.3267 13.6845 19.3333 13.8325 19.3333 14.0018C19.3341 14.1511 19.3275 14.3002 19.3133 14.4488Z" fill="#5E5E5E"/>
<path d="M14 10.3335C13.2748 10.3335 12.5659 10.5485 11.963 10.9514C11.36 11.3543 10.89 11.927 10.6125 12.597C10.335 13.267 10.2624 14.0042 10.4038 14.7155C10.5453 15.4268 10.8945 16.0801 11.4073 16.5929C11.9201 17.1057 12.5734 17.4549 13.2847 17.5964C13.996 17.7379 14.7332 17.6652 15.4032 17.3877C16.0732 17.1102 16.6459 16.6402 17.0488 16.0373C17.4517 15.4343 17.6667 14.7254 17.6667 14.0002C17.6656 13.0281 17.2789 12.0961 16.5915 11.4087C15.9041 10.7213 14.9722 10.3346 14 10.3335ZM14 17.0002C13.4067 17.0002 12.8267 16.8242 12.3333 16.4946C11.84 16.1649 11.4555 15.6964 11.2284 15.1482C11.0013 14.6 10.9419 13.9968 11.0577 13.4149C11.1734 12.8329 11.4592 12.2984 11.8787 11.8788C12.2983 11.4593 12.8328 11.1736 13.4148 11.0578C13.9967 10.9421 14.5999 11.0015 15.1481 11.2285C15.6963 11.4556 16.1648 11.8401 16.4945 12.3335C16.8241 12.8268 17 13.4068 17 14.0002C16.9992 14.7955 16.6828 15.5581 16.1204 16.1205C15.558 16.6829 14.7954 16.9993 14 17.0002Z" fill="#5E5E5E"/>
<path d="M14 11.6665C13.5385 11.6665 13.0873 11.8034 12.7036 12.0597C12.3199 12.3161 12.0208 12.6805 11.8442 13.1069C11.6676 13.5333 11.6214 14.0024 11.7115 14.455C11.8015 14.9077 12.0237 15.3234 12.35 15.6498C12.6764 15.9761 13.0921 16.1983 13.5447 16.2883C13.9974 16.3784 14.4665 16.3322 14.8929 16.1556C15.3192 15.979 15.6837 15.6799 15.9401 15.2962C16.1964 14.9125 16.3333 14.4613 16.3333 13.9998C16.3325 13.3812 16.0864 12.7882 15.649 12.3508C15.2116 11.9134 14.6186 11.6673 14 11.6665ZM14 15.6665C13.6703 15.6665 13.3481 15.5688 13.074 15.3856C12.7999 15.2025 12.5863 14.9422 12.4602 14.6376C12.334 14.3331 12.301 13.998 12.3653 13.6747C12.4296 13.3514 12.5884 13.0544 12.8214 12.8213C13.0545 12.5882 13.3515 12.4295 13.6748 12.3652C13.9981 12.3009 14.3332 12.3339 14.6378 12.46C14.9423 12.5862 15.2026 12.7998 15.3857 13.0739C15.5689 13.348 15.6666 13.6702 15.6666 13.9998C15.6661 14.4417 15.4903 14.8653 15.1779 15.1778C14.8654 15.4902 14.4418 15.666 14 15.6665Z" fill="#5E5E5E"/>
</g>
<defs>
<clipPath id="clip0_449_81">
<rect width="20" height="20" fill="white"/>
</clipPath>
</defs>
</svg>
