<svg width="20" height="20" viewBox="0 0 20 20" fill="none" xmlns="http://www.w3.org/2000/svg">
<g clip-path="url(#clip0_449_85)">
<path d="M17.3589 2.77383H8.34253V0.698828C8.34253 0.313672 8.02925 0 7.6437 0H3.71167C3.32651 0 3.01284 0.313281 3.01284 0.698828V2.77383H2.64097C1.51675 2.77383 0.602295 3.68828 0.602295 4.8125V15.532C0.602295 16.6562 1.51675 17.5707 2.64097 17.5707H7.6812L7.09448 19.3754H5.38901C5.21675 19.3754 5.0769 19.5152 5.0769 19.6875C5.0769 19.8598 5.21675 19.9996 5.38901 19.9996H14.6105C14.7828 19.9996 14.9226 19.8598 14.9226 19.6875C14.9226 19.5152 14.7828 19.3754 14.6105 19.3754H12.905L12.3183 17.5707H17.3585C18.4828 17.5707 19.3972 16.6562 19.3972 15.532V4.8125C19.3976 3.68828 18.4832 2.77383 17.3589 2.77383ZM3.63745 0.698828C3.63745 0.658594 3.67144 0.624609 3.71167 0.624609H7.6437C7.68393 0.624609 7.71792 0.658594 7.71792 0.698828V2.96094C7.71792 3.00117 7.68393 3.03516 7.6437 3.03516H6.39448C6.20776 3.03516 6.04136 3.13203 5.95034 3.29219L5.67729 3.76523L5.40386 3.29023C5.31011 3.13047 5.14409 3.03516 4.95933 3.03516H3.71167C3.67144 3.03516 3.63745 3.00117 3.63745 2.96094V0.698828ZM2.64097 3.39844H3.16753C3.29565 3.55742 3.49175 3.65977 3.71167 3.65977H4.89604L5.23276 4.24492C5.32651 4.40469 5.49253 4.5 5.67729 4.5C5.86206 4.5 6.02808 4.40469 6.12261 4.24297L6.45933 3.65938H7.6437C7.86362 3.65938 8.05972 3.55703 8.18784 3.39805H17.3589C18.1386 3.39805 18.773 4.03242 18.773 4.81211V14.0844H8.14761V11.3328C8.14761 11.1895 8.2644 11.0727 8.40776 11.0727H9.49175V11.7148C9.49175 12.1754 9.86597 12.5496 10.3253 12.5496H17.1121C17.5718 12.5496 17.9457 12.175 17.9457 11.7148V5.45117C17.9457 4.99063 17.5714 4.61641 17.1121 4.61641H10.3253C9.86557 4.61641 9.49175 4.99102 9.49175 5.45117V8.75977H4.22534C3.02808 8.75977 2.05386 9.73398 2.05386 10.9312V12.8391C2.05386 13.4762 2.57065 13.9945 3.20659 13.9961V14.0848H1.2269V4.8125C1.2269 4.03281 1.86128 3.39844 2.64097 3.39844ZM3.8312 14.0848V13.8145C4.15308 13.6086 4.36714 13.2484 4.36714 12.8391V11.2168C4.36714 11.0441 4.22729 10.9047 4.05503 10.9047C3.88276 10.9047 3.74292 11.0445 3.74292 11.2168V12.8391C3.74292 13.1328 3.50386 13.3715 3.2105 13.3715C2.91753 13.3715 2.67886 13.1324 2.67886 12.8391V10.9312C2.67886 10.0781 3.37261 9.38438 4.22573 9.38438H10.3027C10.5964 9.38438 10.8351 9.62266 10.8351 9.91602C10.8351 10.2098 10.596 10.4484 10.3027 10.4484H8.40815C7.92026 10.4484 7.52339 10.8453 7.52339 11.3332V14.0848H3.8312ZM10.1164 11.073H10.3023C10.9402 11.073 11.4593 10.5539 11.4593 9.91602C11.4593 9.27852 10.9402 8.76016 10.3023 8.76016H10.1164V5.45156C10.1164 5.3375 10.2121 5.24102 10.3257 5.24102H17.1124C17.2257 5.24102 17.3218 5.3375 17.3218 5.45156V11.7156C17.3218 11.8316 17.2281 11.9262 17.1124 11.9262H10.3253C10.2101 11.9262 10.116 11.8316 10.116 11.7156V11.073H10.1164ZM12.2488 19.3754H7.75112L8.33784 17.5707H11.6621L12.2488 19.3754ZM17.3589 16.9461H11.8863C11.8855 16.9461 11.8851 16.9461 11.8843 16.9461H8.11518C8.11479 16.9461 8.11479 16.9461 8.1144 16.9461H2.64097C1.86128 16.9461 1.2269 16.3117 1.2269 15.532V14.7094H18.773V15.532C18.773 16.3117 18.1386 16.9461 17.3589 16.9461ZM9.99995 14.8863C9.48159 14.8863 9.05972 15.3086 9.05972 15.8273C9.05972 16.3457 9.48159 16.7676 9.99995 16.7676C10.5183 16.7676 10.9402 16.3457 10.9402 15.8273C10.9402 15.3086 10.5183 14.8863 9.99995 14.8863ZM9.99995 16.1434C9.82612 16.1434 9.68433 16.002 9.68433 15.8277C9.68433 15.6531 9.82573 15.5109 9.99995 15.5109C10.1742 15.5109 10.3156 15.6531 10.3156 15.8277C10.3156 16.0016 10.1738 16.1434 9.99995 16.1434ZM5.67729 8.37891C6.71479 8.37891 7.55854 7.53477 7.55854 6.49766C7.55854 5.46055 6.71479 4.61641 5.67729 4.61641C4.64058 4.61641 3.79722 5.46055 3.79722 6.49766C3.79722 7.53477 4.64058 8.37891 5.67729 8.37891ZM5.67729 5.24102C6.37026 5.24102 6.93393 5.80469 6.93393 6.49766C6.93393 7.19062 6.37026 7.7543 5.67729 7.7543C4.98511 7.7543 4.42144 7.19062 4.42144 6.49766C4.42144 5.80469 4.98472 5.24102 5.67729 5.24102ZM10.9277 6.43008C10.9277 6.25742 11.0675 6.11797 11.2398 6.11797H16.1972C16.3699 6.11797 16.5093 6.25781 16.5093 6.43008C16.5093 6.60234 16.3695 6.74219 16.1972 6.74219H11.2402C11.0675 6.74258 10.9277 6.60273 10.9277 6.43008ZM16.1976 8.17734H11.2402C11.0675 8.17734 10.9281 8.0375 10.9281 7.86523C10.9281 7.69297 11.0679 7.55313 11.2402 7.55313H16.1976C16.3703 7.55313 16.5097 7.69297 16.5097 7.86523C16.5097 8.0375 16.3699 8.17734 16.1976 8.17734ZM16.5097 9.30117C16.5097 9.47383 16.3699 9.61328 16.1976 9.61328H12.096C11.9234 9.61328 11.7839 9.47344 11.7839 9.30117C11.7839 9.12891 11.9238 8.98906 12.096 8.98906H16.1976C16.3699 8.98906 16.5097 9.12891 16.5097 9.30117ZM16.5097 10.7363C16.5097 10.909 16.3699 11.0484 16.1976 11.0484H12.096C11.9234 11.0484 11.7839 10.9086 11.7839 10.7363C11.7839 10.5641 11.9238 10.4242 12.096 10.4242H16.1976C16.3699 10.4242 16.5097 10.5641 16.5097 10.7363ZM3.86011 1.30547C3.86011 1.13281 3.99995 0.993359 4.17222 0.993359H7.18198C7.35425 0.993359 7.49409 1.1332 7.49409 1.30547C7.49409 1.47773 7.35425 1.61758 7.18198 1.61758H4.17222C3.99995 1.61797 3.86011 1.47812 3.86011 1.30547ZM3.86011 2.35547C3.86011 2.18281 3.99995 2.04336 4.17222 2.04336H5.6769C5.84917 2.04336 5.98901 2.1832 5.98901 2.35547C5.98901 2.52773 5.84917 2.66758 5.6769 2.66758H4.17222C3.99995 2.66758 3.86011 2.52773 3.86011 2.35547Z" fill="#5E5E5E"/>
</g>
<defs>
<clipPath id="clip0_449_85">
<rect width="20" height="20" fill="white"/>
</clipPath>
</defs>
</svg>
