<svg width="48" height="48" viewBox="0 0 48 48" fill="none" xmlns="http://www.w3.org/2000/svg">
<path d="M12.7288 34.542C12.7398 34.542 12.1236 35.7855 11.5734 37.7773C11.5587 37.8287 11.5404 37.8837 11.5184 37.9424C11.4817 38.0964 11.4413 38.2578 11.3973 38.4266C11.2432 39.0428 11.0782 39.6041 10.8911 40.0992C10.3519 41.4638 9.6256 42.2671 8.51416 42.1571C7.24866 42.069 5.90613 40.1763 6.00517 36.8199C6.0125 36.7686 6.01617 36.7136 6.01617 36.6549C6.03818 36.222 6.0822 35.7635 6.14822 35.2793C6.41233 33.5296 7.03958 31.791 7.69984 30.3934C7.84656 30.0926 7.99329 29.8102 8.14001 29.5461C8.30141 29.2453 8.45547 28.9702 8.60219 28.7207C9.21844 27.7193 9.70263 27.1361 9.69163 27.1361C9.69163 27.0701 11.1002 27.7744 12.1016 28.9188C12.1896 29.0215 12.274 29.1279 12.3547 29.2379C13.213 30.4044 13.6422 31.978 12.7288 34.542Z" fill="url(#paint0_linear_2_12617)"/>
<g style="mix-blend-mode:multiply" opacity="0.2">
<path d="M12.7282 34.542C12.7392 34.542 12.123 35.7855 11.5728 37.7773C11.5581 37.8286 11.5397 37.8837 11.5177 37.9424C11.481 38.0964 11.4407 38.2578 11.3967 38.4266C11.2426 39.0428 11.0776 39.604 10.8905 40.0992C10.8575 39.7581 11.3417 33.5516 11.3417 33.5516C9.30586 32.8694 8.23843 31.4718 7.69922 30.3934C7.84594 30.0926 7.99267 29.8101 8.13939 29.546C8.30079 29.2452 8.45485 28.9701 8.60157 28.7207C9.69101 28.7647 11.1876 29.0178 12.3541 29.2379C13.2124 30.4044 13.6416 31.978 12.7282 34.542Z" fill="#808080"/>
</g>
<path d="M34.3082 34.542C34.2972 34.542 35.0345 36.0716 35.6287 38.4266C36.212 40.7595 37.0043 42.3111 38.5119 42.1571C39.9644 42.058 41.5161 39.582 40.8778 35.2793C40.5697 33.1555 39.7113 31.0316 38.897 29.5461C38.0827 28.0275 37.3234 27.1471 37.3344 27.1361C37.3344 27.0701 35.9258 27.7744 34.9354 28.9188C33.912 30.1183 33.3068 31.7359 34.3082 34.542Z" fill="url(#paint1_linear_2_12617)"/>
<g style="mix-blend-mode:multiply" opacity="0.2">
<path d="M34.3081 34.542C34.2971 34.542 34.9023 35.7855 35.4635 37.7773C35.4782 37.8286 35.4929 37.8837 35.5076 37.9424C35.5516 38.0964 35.5919 38.2578 35.6286 38.4266C35.7827 39.0428 35.9477 39.604 36.1458 40.0992C36.1788 39.7581 35.6946 33.5516 35.6946 33.5516C37.7194 32.8694 38.7869 31.4718 39.3261 30.3934C39.1867 30.0926 39.0436 29.8101 38.8969 29.546C38.7355 29.2452 38.5778 28.9701 38.4237 28.7207C37.3343 28.7647 35.8487 29.0178 34.6822 29.2379C33.8239 30.4044 33.3947 31.978 34.3081 34.542Z" fill="#808080"/>
</g>
<path d="M16.3818 27.994C16.3818 29.8647 15.1603 31.4493 13.4766 31.9996C13.0694 32.1426 12.6183 32.2086 12.1561 32.2086C9.83416 32.2086 7.94141 30.3269 7.94141 27.994C7.94141 25.661 9.83416 23.7793 12.1561 23.7793C12.3028 23.7793 12.4459 23.7866 12.5852 23.8013C14.7201 24.0104 16.3818 25.8041 16.3818 27.994Z" fill="#5D6063"/>
<path d="M13.4766 31.9996C13.0694 32.1426 12.6183 32.2086 12.1561 32.2086C9.83416 32.2086 7.94141 30.3269 7.94141 27.994C7.94141 25.661 9.83416 23.7793 12.1561 23.7793C12.3028 23.7793 12.4459 23.7866 12.5852 23.8013C10.4504 25.496 9.72411 28.9293 13.4546 30.8771C13.5096 31.3063 13.5206 31.6804 13.4766 31.9996Z" fill="#5D6063"/>
<path d="M30.6553 27.994C30.6553 30.3269 32.537 32.2086 34.8699 32.2086C37.2029 32.2086 39.0956 30.3269 39.0956 27.994C39.0956 25.661 37.2029 23.7793 34.8699 23.7793C32.537 23.7793 30.6553 25.661 30.6553 27.994Z" fill="#5D6063"/>
<path d="M33.5486 31.9996C33.9668 32.1426 34.407 32.2086 34.8692 32.2086C37.2021 32.2086 39.0948 30.3269 39.0948 27.994C39.0948 25.661 37.2021 23.7793 34.8692 23.7793C34.7298 23.7793 34.5904 23.7866 34.451 23.8013C36.5859 25.496 37.3121 28.9293 33.5707 30.8771C33.5156 31.3063 33.5046 31.6804 33.5486 31.9996Z" fill="#5D6063"/>
<path d="M26.9684 36.2698C26.9684 38.1736 25.4167 39.7142 23.513 39.7142C21.6092 39.7142 20.0576 38.1736 20.0576 36.2698C20.0576 34.3551 21.6092 32.8145 23.513 32.8145C25.4167 32.8145 26.9684 34.3551 26.9684 36.2698Z" fill="#FF0000"/>
<path d="M34.0337 32.1864C34.0337 32.7476 33.9896 33.3528 33.9016 34.0021C33.8943 34.0608 33.8869 34.1195 33.8796 34.1782C33.7696 34.9375 33.5935 35.7628 33.3294 36.6542C31.1725 44.1261 27.7282 47.9997 23.5135 47.9997C19.2988 47.9997 15.8655 44.1261 13.6976 36.6542C13.4445 35.7628 13.2684 34.9375 13.1474 34.1782C13.14 34.1195 13.1327 34.0608 13.1254 34.0021C13.0373 33.3528 12.9933 32.7476 12.9933 32.1864C12.9823 29.9415 13.5765 28.3679 14.1928 27.3445C14.809 26.31 15.4363 25.8479 15.4363 25.8479C15.4363 25.8479 18.7266 24.5273 23.5135 24.5273C28.3004 24.5273 31.5907 25.8479 31.5907 25.8479C31.5907 25.8479 32.1739 26.266 32.7682 27.2124C33.3954 28.2248 34.0447 29.8424 34.0337 32.1864Z" fill="url(#paint2_linear_2_12617)"/>
<g style="mix-blend-mode:multiply" opacity="0.1">
<path d="M32.7678 27.2124C31.3702 28.4449 28.465 30.2386 23.414 30.2386C18.5281 30.2386 15.645 28.5659 14.1924 27.3445C14.8086 26.31 15.4359 25.8479 15.4359 25.8479C15.4359 25.8479 18.7262 24.5273 23.5131 24.5273C28.3 24.5273 31.5903 25.8479 31.5903 25.8479C31.5903 25.8479 32.1735 26.266 32.7678 27.2124Z" fill="#808080"/>
</g>
<path d="M27.2542 35.554C27.2542 37.6118 25.5815 39.2845 23.5127 39.2845C21.4549 39.2845 19.7822 37.6118 19.7822 35.554C19.7822 35.2532 19.8152 34.9597 19.8813 34.6736C20.2774 33.034 21.752 31.8125 23.5127 31.8125C25.2734 31.8125 26.748 33.034 27.1441 34.6736C27.2175 34.9597 27.2542 35.2532 27.2542 35.554Z" fill="#D3222A"/>
<g style="mix-blend-mode:screen" opacity="0.2">
<path d="M27.1447 34.6736C26.7486 36.3243 25.274 37.5348 23.5133 37.5348C21.7526 37.5348 20.278 36.3243 19.8818 34.6736C20.278 33.034 21.7526 31.8125 23.5133 31.8125C25.274 31.8125 26.7486 33.034 27.1447 34.6736Z" fill="#B3B3B3"/>
</g>
<g style="mix-blend-mode:screen" opacity="0.3">
<path d="M24.635 34.2226C25.0862 34.6628 25.6474 34.8279 25.8895 34.5858C26.1316 34.3437 25.9665 33.7825 25.5264 33.3313C25.0752 32.8911 24.514 32.7261 24.2719 32.9682C24.0298 33.2103 24.1948 33.7715 24.635 34.2226Z" fill="#E6E6E6"/>
</g>
<g style="mix-blend-mode:screen" opacity="0.1">
<path d="M10.4955 26.5085C10.0883 26.9927 9.54911 27.2018 9.28501 26.9817C9.0209 26.7616 9.13095 26.1894 9.53811 25.7052C9.94527 25.221 10.4955 25.0119 10.7596 25.232C11.0237 25.4631 10.9026 26.0243 10.4955 26.5085Z" fill="#E6E6E6"/>
</g>
<g style="mix-blend-mode:screen" opacity="0.1">
<path d="M36.5313 26.5085C36.9384 26.9927 37.4776 27.2018 37.7418 26.9817C38.0059 26.7616 37.8958 26.1894 37.4887 25.7052C37.0815 25.221 36.5423 25.0119 36.2782 25.232C36.0141 25.4631 36.1241 26.0243 36.5313 26.5085Z" fill="#E6E6E6"/>
</g>
<g opacity="0.6">
<path d="M33.8792 34.178C33.5381 34.2661 30.677 35.0254 27.9589 35.3115C27.9809 35.9277 27.9479 37.6334 26.8144 38.8549C26.0331 39.6802 24.9327 40.0984 23.5131 40.0984C22.1046 40.0984 20.9931 39.6802 20.2228 38.8549C19.0784 37.6334 19.0453 35.9277 19.0784 35.3115C16.3603 35.0254 13.4991 34.2661 13.147 34.178C13.1397 34.1193 13.1323 34.0606 13.125 34.002C13.1397 34.002 13.1507 34.002 13.158 34.002C13.191 34.013 16.2722 34.8603 19.1664 35.1574C19.2104 35.1684 19.2434 35.2014 19.2434 35.2454C19.2104 35.7627 19.1884 37.5123 20.3439 38.7338C21.0812 39.5261 22.1486 39.9333 23.5131 39.9333C24.8777 39.9333 25.9451 39.5261 26.6934 38.7338C27.8378 37.5123 27.8158 35.7627 27.7828 35.2454C27.7828 35.2014 27.8158 35.1684 27.8598 35.1574C30.754 34.8603 33.8352 34.013 33.8682 34.002C33.8829 34.002 33.8939 34.002 33.9012 34.002C33.8939 34.0606 33.8866 34.1193 33.8792 34.178Z" fill="#808080"/>
</g>
<g style="mix-blend-mode:multiply">
<path d="M34.0335 32.1865C34.0335 33.452 33.8354 34.9376 33.3292 36.6543C31.1724 44.1263 27.728 47.9998 23.5133 47.9998C19.2987 47.9998 15.8653 44.1263 13.6974 36.6543C13.2022 34.9376 13.0042 33.452 12.9932 32.1865C13.8955 35.4328 16.7787 43.345 23.5133 43.345C30.248 43.345 33.1312 35.4438 34.0335 32.1865Z" fill="#F0F0F0"/>
</g>
<g style="mix-blend-mode:multiply" opacity="0.6">
<path d="M11.5731 37.7769C11.5584 37.8283 11.5401 37.8833 11.5181 37.942C8.89903 36.2913 6.63213 36.6655 6.00488 36.8195C6.01222 36.7682 6.01588 36.7132 6.01588 36.6545C6.32401 36.5774 6.91825 36.4784 7.71056 36.5114C8.64593 36.5554 10.0435 36.8305 11.5731 37.7769Z" fill="#808080"/>
</g>
<g style="mix-blend-mode:multiply" opacity="0.6">
<path d="M35.4639 37.7769C35.4785 37.8283 35.4932 37.8833 35.5079 37.942C38.1379 36.2913 40.3938 36.6655 41.0211 36.8195C41.0211 36.7682 41.0211 36.7132 41.0211 36.6545C40.7129 36.5774 40.1187 36.4784 39.3154 36.5114C38.38 36.5554 36.9935 36.8305 35.4639 37.7769Z" fill="#808080"/>
</g>
<path d="M16.6798 2.77212C15.9095 2.90417 15.3813 3.20129 15.0622 3.44338C13.7526 4.58784 12.8943 5.7543 12.3441 6.83273C11.0456 9.34172 11.3867 11.3555 11.3867 11.3775C11.4527 11.7407 11.2216 12.0818 10.8585 12.1478C10.8218 12.1552 10.7815 12.1588 10.7374 12.1588C10.4293 12.1588 10.1542 11.9388 10.0992 11.6196C10.0882 11.5646 9.80207 10.013 10.4733 7.90015C10.6604 7.29491 10.9465 6.60164 11.3647 5.86434C11.7829 5.12705 12.3331 4.34574 13.0704 3.55343C13.0704 3.55343 13.0704 3.54976 13.0704 3.54242C13.107 3.50574 13.1437 3.46539 13.1804 3.42137C13.4885 3.09124 14.3799 2.13386 15.2162 1.13247C15.3116 1.01509 15.4143 0.908712 15.5243 0.813341C16.5147 -0.133035 17.7472 -0.265087 18.3745 0.48321C19.0787 1.30854 18.0333 2.54102 16.6798 2.77212Z" fill="#5D6063"/>
<path d="M28.6532 0.483152C29.3575 -0.342176 30.7771 -0.10008 31.8115 1.13241C32.6588 2.13381 33.5392 3.09118 33.8473 3.42131C33.884 3.46533 33.9206 3.50568 33.9573 3.54236C33.9647 3.5497 33.9683 3.55337 33.9683 3.55337C35.4319 5.138 36.1802 6.68961 36.5544 7.90009C37.2256 10.0129 36.9505 11.5645 36.9395 11.6196C36.8735 11.9387 36.5984 12.1588 36.2903 12.1588C36.2536 12.1588 36.2132 12.1551 36.1692 12.1478C35.8171 12.0818 35.575 11.7406 35.641 11.3775C35.652 11.3335 36.3453 7.27284 31.9655 3.44332C31.6574 3.20123 31.1292 2.90411 30.3589 2.77206C28.9944 2.54097 27.9599 1.30848 28.6532 0.483152Z" fill="#5D6063"/>
<path d="M10.9247 16.5821C10.9137 17.8256 10.8367 19.1131 10.6606 20.2025L9.47217 19.8284C9.21907 19.7513 9.032 19.5422 8.98798 19.2891C8.76789 18.1117 8.65785 16.8792 8.62484 15.7897C8.56982 14.6123 8.60283 13.6219 8.62484 13.1157C8.63584 12.8736 8.75689 12.6535 8.96597 12.5325C9.59322 12.1693 10.7377 11.498 10.7377 11.498C10.7377 11.498 10.9578 13.941 10.9247 16.5821Z" fill="#D3222A"/>
<g style="mix-blend-mode:screen" opacity="0.3">
<path d="M10.9247 16.5821C10.0444 16.384 9.2851 16.1089 8.62484 15.7897C8.56982 14.6123 8.60283 13.6219 8.62484 13.1157C8.63584 12.8736 8.75689 12.6535 8.96597 12.5325C9.59322 12.1693 10.7377 11.498 10.7377 11.498C10.7377 11.498 10.9578 13.941 10.9247 16.5821Z" fill="#B3B3B3"/>
</g>
<path d="M36.3668 20.2025L37.5663 19.8284C37.8084 19.7513 37.9955 19.5422 38.0505 19.2891C38.5127 16.8462 38.4467 14.1061 38.4136 13.1157C38.4026 12.8736 38.2706 12.6535 38.0615 12.5325C37.4343 12.1693 36.2898 11.498 36.2898 11.498C36.2898 11.498 35.8166 16.8022 36.3668 20.2025Z" fill="#D3222A"/>
<path d="M23.5136 28.2139C13.1035 28.2139 8.08552 21.1931 10.8806 10.9921C11.9811 6.93145 15.7115 5.10473 18.8258 4.2904C18.9138 4.2684 19.0055 4.24272 19.1009 4.21338C21.5219 3.61914 23.5026 3.61914 23.5136 3.61914C23.5246 3.61914 25.5164 3.61914 27.9374 4.21338C28.0254 4.24272 28.1171 4.2684 28.2125 4.2904C31.3267 5.10473 35.0462 6.93145 36.1577 10.9921C38.9418 21.1931 33.9238 28.2139 23.5136 28.2139Z" fill="url(#paint3_linear_2_12617)"/>
<g style="mix-blend-mode:screen" opacity="0.4">
<path d="M23.5141 24.1535C20.8401 24.1535 18.199 23.4052 16.2953 22.1066C14.1164 20.6101 12.9609 18.5302 12.9609 16.0873C12.9609 13.9964 13.4891 12.2687 14.5015 11.0803C15.3709 10.0459 16.5704 9.47363 17.8689 9.47363C18.188 9.47363 18.5181 9.50665 18.8373 9.58368C21.6324 10.2439 23.5031 10.2549 23.5141 10.2549C23.5361 10.2549 25.4069 10.2439 28.191 9.58368C28.5101 9.50665 28.8402 9.47363 29.1704 9.47363C30.4579 9.47363 31.6574 10.0459 32.5377 11.0803C33.5391 12.2687 34.0673 13.9964 34.0673 16.0873C34.0673 18.5302 32.9229 20.6101 30.744 22.1066C28.8292 23.4052 26.1992 24.1535 23.5141 24.1535Z" fill="#B3B3B3"/>
</g>
<path d="M33.7915 16.0875C33.7915 11.0585 30.7213 9.26475 28.2563 9.84798C25.4062 10.5303 23.5134 10.5303 23.5134 10.5303C23.5134 10.5303 21.6317 10.5303 18.7705 9.84798C16.3056 9.26475 13.2354 11.0585 13.2354 16.0875C13.2354 21.1275 18.3744 23.8785 23.5134 23.8785C28.6525 23.8785 33.7915 21.1275 33.7915 16.0875Z" fill="#5D6063"/>
<g style="mix-blend-mode:screen" opacity="0.1">
<path d="M30.755 19.4434H30.733H26.8154H26.8044H26.7934H22.8758H22.8538H22.8428H18.9253H18.9143H18.9033H14.9857H14.9637H14.9527H14.7656C14.8023 19.4947 14.839 19.5461 14.8757 19.5974H14.9527H14.9637H14.9857H18.9033H18.9143H18.9253H22.8428H22.8538H22.8758H26.7934H26.8044H26.8154H30.733H30.755H30.766H32.1525C32.1892 19.5461 32.2259 19.4947 32.2626 19.4434H30.766H30.755Z" fill="#D3222A"/>
<path d="M30.7547 18.6514H30.7327H26.8151H26.8041H26.7931H22.8756H22.8536H22.8426H18.925H18.914H18.903H14.9855H14.9634H14.9524H14.3252C14.3545 18.7027 14.3802 18.7541 14.4022 18.8054H14.9524H14.9634H14.9855H18.903H18.914H18.925H22.8426H22.8536H22.8756H26.7931H26.8041H26.8151H30.7327H30.7547H30.7657H32.6255C32.6548 18.7541 32.6805 18.7027 32.7025 18.6514H30.7657H30.7547Z" fill="#D3222A"/>
<path d="M30.7547 17.8594H30.7327H26.8151H26.8041H26.7931H22.8756H22.8536H22.8426H18.925H18.914H18.903H14.9854H14.9634H14.9524H14.0391C14.0537 17.9181 14.0684 17.9731 14.0831 18.0244H14.9524H14.9634H14.9854H18.903H18.914H18.925H22.8426H22.8536H22.8756H26.7931H26.8041H26.8151H30.7327H30.7547H30.7657H32.9446C32.9666 17.9731 32.9849 17.9181 32.9996 17.8594H30.7657H30.7547Z" fill="#D3222A"/>
<path d="M30.755 17.0771H30.733H26.8154H26.8044H26.7934H22.8759H22.8538H22.8428H18.9253H18.9143H18.9033H14.9857H14.9637H14.9527H13.8633C13.8706 17.1285 13.878 17.1799 13.8853 17.2312H14.9527H14.9637H14.9857H18.9033H18.9143H18.9253H22.8428H22.8538H22.8759H26.7934H26.8044H26.8154H30.733H30.755H30.766H33.1429C33.1576 17.1799 33.1686 17.1285 33.1759 17.0771H30.766H30.755Z" fill="#D3222A"/>
<path d="M30.7549 16.2852H30.7329H26.8153H26.8043H26.7933H22.8757H22.8537H22.8427H18.9252H18.9142H18.9032H14.9856H14.9636H14.9526H13.7861C13.7861 16.3365 13.7898 16.3879 13.7971 16.4392H14.9526H14.9636H14.9856H18.9032H18.9142H18.9252H22.8427H22.8537H22.8757H26.7933H26.8043H26.8153H30.7329H30.7549H30.7659H33.2419C33.2419 16.3879 33.2419 16.3365 33.2419 16.2852H30.7659H30.7549Z" fill="#D3222A"/>
<path d="M30.7556 19.0479H30.7336H26.816H26.805H26.794H22.8765H22.8545H22.8435H18.9259H18.9149H18.9039H14.9863H14.9643H14.9533H14.5352C14.5645 19.0992 14.5938 19.1506 14.6232 19.2019H14.9533H14.9643H14.9863H18.9039H18.9149H18.9259H22.8435H22.8545H22.8765H26.794H26.805H26.816H30.7336H30.7556H30.7666H32.4172C32.4466 19.1506 32.4759 19.0992 32.5053 19.0479H30.7666H30.7556Z" fill="#D3222A"/>
<path d="M30.7555 18.2549H30.7334H26.8159H26.8049H26.7939H22.8763H22.8543H22.8433H18.9258H18.9148H18.9038H14.9862H14.9642H14.9532H14.1719C14.1865 18.3062 14.2049 18.3613 14.2269 18.4199H14.9532H14.9642H14.9862H18.9038H18.9148H18.9258H22.8433H22.8543H22.8763H26.7939H26.8049H26.8159H30.7334H30.7555H30.7665H32.8023C32.8243 18.3613 32.8463 18.3062 32.8683 18.2549H30.7665H30.7555Z" fill="#D3222A"/>
<path d="M30.7554 17.4629H30.7334H26.8158H26.8048H26.7938H22.8762H22.8542H22.8432H18.9257H18.9147H18.9037H14.9861H14.9641H14.9531H13.9297C13.9444 17.5216 13.959 17.5766 13.9737 17.628H14.9531H14.9641H14.9861H18.9037H18.9147H18.9257H22.8432H22.8542H22.8762H26.7938H26.8048H26.8158H30.7334H30.7554H30.7664H33.0663C33.0809 17.5766 33.092 17.5216 33.0993 17.4629H30.7664H30.7554Z" fill="#D3222A"/>
<path d="M30.7553 16.6816H30.7333H26.8157H26.8047H26.7937H22.8762H22.8542H22.8432H18.9256H18.9146H18.9036H14.9861H14.964H14.953H13.8086C13.8159 16.733 13.8233 16.7843 13.8306 16.8357H14.953H14.964H14.9861H18.9036H18.9146H18.9256H22.8432H22.8542H22.8762H26.7937H26.8047H26.8157H30.7333H30.7553H30.7663H33.2093C33.2166 16.7843 33.2203 16.733 33.2203 16.6816H30.7663H30.7553Z" fill="#D3222A"/>
<path d="M30.7545 21.0176H30.7325H26.815H26.804H26.793H22.8754H22.8534H22.8424H18.9248H18.9138H18.9028H16.2178C16.2838 21.0763 16.3498 21.1313 16.4159 21.1826H18.9028H18.9138H18.9248H22.8424H22.8534H22.8754H26.793H26.804H26.815H30.6115C30.6555 21.146 30.6959 21.1129 30.7325 21.0836C30.7399 21.0763 30.7472 21.0726 30.7545 21.0726C30.7545 21.0653 30.7582 21.0616 30.7655 21.0616C30.7802 21.0469 30.7986 21.0323 30.8206 21.0176H30.7655H30.7545Z" fill="#D3222A"/>
<path d="M30.7549 20.2363H30.7329H26.8154H26.8044H26.7934H22.8758H22.8538H22.8428H18.9252H18.9142H18.9032H15.3818C15.4332 20.2877 15.4809 20.339 15.5249 20.3904H18.9032H18.9142H18.9252H22.8428H22.8538H22.8758H26.7934H26.8044H26.8154H30.7329H30.7549H30.7659H31.5032C31.5546 20.339 31.6023 20.2877 31.6463 20.2363H30.7659H30.7549Z" fill="#D3222A"/>
<path d="M30.7555 20.6211H30.7335H26.816H26.805H26.7939H22.8764H22.8544H22.8434H18.9258H18.9148H18.9038H15.7676C15.8263 20.6798 15.885 20.7348 15.9436 20.7862H18.9038H18.9148H18.9258H22.8434H22.8544H22.8764H26.7939H26.805H26.816H30.7335H30.7555H30.7665H31.0967C31.1553 20.7348 31.2104 20.6798 31.2617 20.6211H30.7665H30.7555Z" fill="#D3222A"/>
<path d="M30.755 19.8398H30.733H26.8154H26.8044H26.7934H22.8759H22.8538H22.8428H18.9253H18.9143H18.9033H15.0518C15.0958 19.8912 15.1361 19.9426 15.1728 19.9939H18.9033H18.9143H18.9253H22.8428H22.8538H22.8759H26.7934H26.8044H26.8154H30.733H30.755H30.766H31.8554C31.8994 19.9426 31.9398 19.8912 31.9765 19.8398H30.766H30.755Z" fill="#D3222A"/>
<path d="M29.8633 10.3652H28.4767C28.4474 10.3726 28.4144 10.3799 28.3777 10.3872C28.1723 10.4386 27.9705 10.4826 27.7725 10.5193H30.4025C30.2264 10.4533 30.0467 10.4019 29.8633 10.3652Z" fill="#D3222A"/>
<path d="M26.8041 22.6016H26.7931H22.8755H22.8535H22.8425H19.123C19.2771 22.6529 19.4348 22.7043 19.5962 22.7556H22.8425H22.8535H22.8755H26.7931H26.8041H26.8151H27.4313C27.5927 22.7043 27.7541 22.6529 27.9155 22.6016H26.8151H26.8041Z" fill="#D3222A"/>
<path d="M26.8048 21.8096H26.7938H22.8762H22.8542H22.8432H18.9256H18.9146H18.9036H17.374C17.4694 21.8609 17.5684 21.9123 17.6711 21.9636H18.9036H18.9146H18.9256H22.8432H22.8542H22.8762H26.7938H26.8048H26.8158H29.3688C29.4642 21.9123 29.5595 21.8609 29.6549 21.8096H26.8158H26.8048Z" fill="#D3222A"/>
<path d="M26.805 22.2061H26.794H22.8764H22.8544H22.8434H18.9258H18.9148H18.9038H18.1445C18.2619 22.2574 18.383 22.3088 18.5077 22.3601H18.9038H18.9148H18.9258H22.8434H22.8544H22.8764H26.794H26.805H26.816H28.5327C28.65 22.3088 28.7674 22.2574 28.8848 22.2061H26.816H26.805Z" fill="#D3222A"/>
<path d="M26.8041 21.4131H26.7931H22.8755H22.8535H22.8425H18.925H18.914H18.903H16.7461C16.7534 21.4131 16.7571 21.4168 16.7571 21.4241C16.8305 21.4754 16.9075 21.5231 16.9882 21.5671H18.903H18.914H18.925H22.8425H22.8535H22.8755H26.7931H26.8041H26.8151H30.0504C30.1237 21.5231 30.1971 21.4754 30.2705 21.4241C30.2778 21.4168 30.2815 21.4131 30.2815 21.4131H26.8151H26.8041Z" fill="#D3222A"/>
<path d="M26.8039 10.9158H26.8149H30.7325H30.7545H30.7655H31.1396C31.0589 10.8644 30.9782 10.8131 30.8975 10.7617H30.7655H30.7545H30.7325H26.8149H26.8039H26.7929H26.5398C26.151 10.8277 25.7989 10.8791 25.4834 10.9158H26.7929H26.8039Z" fill="#D3222A"/>
<path d="M22.8542 22.998H22.8432H20.4883C20.7597 23.0567 21.0312 23.1081 21.3026 23.1521H22.8432H22.8542H22.8762H25.7374C26.0088 23.1081 26.2766 23.0567 26.5407 22.998H22.8762H22.8542Z" fill="#D3222A"/>
<path d="M18.9143 11.7078H18.9253H22.8428H22.8538H22.8759H26.7934H26.8044H26.8154H30.733H30.755H30.766H31.9875C31.9435 11.6564 31.8958 11.6051 31.8444 11.5537H30.766H30.755H30.733H26.8154H26.8044H26.7934H22.8759H22.8538H22.8428H18.9253H18.9143H18.9033H15.1838C15.1398 11.6051 15.0958 11.6564 15.0518 11.7078H18.9033H18.9143Z" fill="#D3222A"/>
<path d="M18.9139 10.9158H18.9249H21.5549C21.2321 10.8791 20.88 10.8277 20.4985 10.7617H18.9249H18.9139H18.9029H16.1408C16.0528 10.8131 15.9684 10.8644 15.8877 10.9158H18.9029H18.9139Z" fill="#D3222A"/>
<path d="M18.9144 11.3113H18.9254H22.843H22.854H22.876H26.7935H26.8046H26.8156H30.7331H30.7551H30.7661H31.6245C31.5658 11.2599 31.5071 11.2086 31.4484 11.1572H30.7661H30.7551H30.7331H26.8156H26.8046H26.7935H22.876H22.854H22.843H18.9254H18.9144H18.9034H15.5801C15.5214 11.2086 15.4664 11.2599 15.415 11.3113H18.9034H18.9144Z" fill="#D3222A"/>
<path d="M18.9146 10.5193H18.9256H19.2668C19.1567 10.4973 19.043 10.4753 18.9256 10.4533C18.9183 10.4533 18.9146 10.4496 18.9146 10.4423C18.9073 10.4423 18.9036 10.4423 18.9036 10.4423C18.8156 10.4276 18.7312 10.4093 18.6505 10.3872C18.6138 10.3799 18.5808 10.3726 18.5515 10.3652H17.1759C16.9925 10.4019 16.8128 10.4533 16.6367 10.5193H18.9036H18.9146Z" fill="#D3222A"/>
<path d="M14.9633 15.6582H14.9853H18.9029H18.9139H18.9249H22.8425H22.8535H22.8755H26.793H26.804H26.815H30.7326H30.7546H30.7656H33.2416C33.2416 15.5995 33.2379 15.5445 33.2306 15.4932H30.7656H30.7546H30.7326H26.815H26.804H26.793H22.8755H22.8535H22.8425H18.9249H18.9139H18.9029H14.9853H14.9633H14.9523H13.7969C13.7969 15.5445 13.7969 15.5995 13.7969 15.6582H14.9523H14.9633Z" fill="#D3222A"/>
<path d="M14.964 14.8653H14.986H18.9035H18.9145H18.9255H22.8431H22.8541H22.8761H26.7937H26.8047H26.8157H30.7332H30.7552H30.7663H33.1762C33.1689 14.8139 33.1615 14.7589 33.1542 14.7002H30.7663H30.7552H30.7332H26.8157H26.8047H26.7937H22.8761H22.8541H22.8431H18.9255H18.9145H18.9035H14.986H14.964H14.953H13.8745C13.8672 14.7589 13.8599 14.8139 13.8525 14.8653H14.953H14.964Z" fill="#D3222A"/>
<path d="M14.9638 14.073H14.9858H18.9033H18.9143H18.9253H22.8429H22.8539H22.8759H26.7935H26.8045H26.8155H30.733H30.755H30.766H33.0439C33.0366 14.0217 33.0256 13.9703 33.0109 13.9189H30.766H30.755H30.733H26.8155H26.8045H26.7935H22.8759H22.8539H22.8429H18.9253H18.9143H18.9033H14.9858H14.9638H14.9528H14.0174C14.0101 13.9703 13.999 14.0217 13.9844 14.073H14.9528H14.9638Z" fill="#D3222A"/>
<path d="M14.9634 13.281H14.9854H18.903H18.914H18.925H22.8425H22.8535H22.8755H26.7931H26.8041H26.8151H30.7327H30.7547H30.7657H32.8235C32.8088 13.2297 32.7905 13.1783 32.7685 13.127H30.7657H30.7547H30.7327H26.8151H26.8041H26.7931H22.8755H22.8535H22.8425H18.925H18.914H18.903H14.9854H14.9634H14.9524H14.2591C14.2445 13.1783 14.2261 13.2297 14.2041 13.281H14.9524H14.9634Z" fill="#D3222A"/>
<path d="M14.9641 12.5H14.9861H18.9036H18.9146H18.9256H22.8432H22.8542H22.8762H26.7938H26.8048H26.8158H30.7333H30.7553H30.7663H32.494C32.4647 12.4413 32.4353 12.3863 32.406 12.335H30.7663H30.7553H30.7333H26.8158H26.8048H26.7938H22.8762H22.8542H22.8432H18.9256H18.9146H18.9036H14.9861H14.9641H14.9531H14.6229C14.5936 12.3863 14.5679 12.4413 14.5459 12.5H14.9531H14.9641Z" fill="#D3222A"/>
<path d="M14.9638 15.2617H14.9858H18.9034H18.9144H18.9254H22.8429H22.8539H22.8759H26.7935H26.8045H26.8155H30.733H30.755H30.7661H33.22C33.2127 15.2031 33.2054 15.148 33.198 15.0967H30.7661H30.755H30.733H26.8155H26.8045H26.7935H22.8759H22.8539H22.8429H18.9254H18.9144H18.9034H14.9858H14.9638H14.9528H13.8303C13.823 15.148 13.8193 15.2031 13.8193 15.2617H14.9528H14.9638Z" fill="#D3222A"/>
<path d="M14.9636 14.4695H14.9857H18.9032H18.9142H18.9252H22.8428H22.8538H22.8758H26.7933H26.8043H26.8153H30.7329H30.7549H30.7659H33.1208C33.1135 14.4181 33.1062 14.3668 33.0988 14.3154H30.7659H30.7549H30.7329H26.8153H26.8043H26.7933H22.8758H22.8538H22.8428H18.9252H18.9142H18.9032H14.9857H14.9636H14.9526H13.9402C13.9329 14.3668 13.9219 14.4181 13.9072 14.4695H14.9526H14.9636Z" fill="#D3222A"/>
<path d="M14.9634 13.6775H14.9854H18.9029H18.9139H18.9249H22.8425H22.8535H22.8755H26.793H26.8041H26.8151H30.7326H30.7546H30.7656H32.9445C32.9298 13.6261 32.9151 13.5748 32.9005 13.5234H30.7656H30.7546H30.7326H26.8151H26.8041H26.793H22.8755H22.8535H22.8425H18.9249H18.9139H18.9029H14.9854H14.9634H14.9524H14.127C14.1124 13.5748 14.0977 13.6261 14.083 13.6775H14.9524H14.9634Z" fill="#D3222A"/>
<path d="M14.9636 12.8955H14.9856H18.9032H18.9142H18.9252H22.8428H22.8538H22.8758H26.7933H26.8043H26.8153H30.7329H30.7549H30.7659H32.6807C32.6587 12.8368 32.633 12.7818 32.6036 12.7305H30.7659H30.7549H30.7329H26.8153H26.8043H26.7933H22.8758H22.8538H22.8428H18.9252H18.9142H18.9032H14.9856H14.9636H14.9526H14.4244C14.4024 12.7818 14.3804 12.8368 14.3584 12.8955H14.9526H14.9636Z" fill="#D3222A"/>
<path d="M14.9637 12.1035H14.9857H18.9033H18.9143H18.9253H22.8428H22.8538H22.8758H26.7934H26.8044H26.8154H30.733H30.755H30.766H32.2626C32.2259 12.0449 32.1929 11.9898 32.1635 11.9385H30.766H30.755H30.733H26.8154H26.8044H26.7934H22.8758H22.8538H22.8428H18.9253H18.9143H18.9033H14.9857H14.9637H14.9527H14.8757C14.839 11.9898 14.8023 12.0449 14.7656 12.1035H14.9527H14.9637Z" fill="#D3222A"/>
<path d="M14.9636 16.0427H14.9856H18.9032H18.9142H18.9252H22.8427H22.8537H22.8757H26.7933H26.8043H26.8153H30.7329H30.7549H30.7659H33.2529C33.2529 15.9914 33.2492 15.94 33.2418 15.8887H30.7659H30.7549H30.7329H26.8153H26.8043H26.7933H22.8757H22.8537H22.8427H18.9252H18.9142H18.9032H14.9856H14.9636H14.9526H13.7861C13.7861 15.94 13.7861 15.9914 13.7861 16.0427H14.9526H14.9636Z" fill="#D3222A"/>
</g>
<g style="mix-blend-mode:multiply" opacity="0.2">
<path d="M28.2129 4.2904L26.5732 7.18455C26.078 8.0649 25.1427 8.61512 24.1413 8.61512H22.8978C21.8854 8.61512 20.95 8.0649 20.4548 7.18455L18.8262 4.2904C18.9142 4.2684 19.0059 4.24272 19.1013 4.21338C21.5222 3.61914 23.503 3.61914 23.514 3.61914C23.525 3.61914 25.5168 3.61914 27.9378 4.21338C28.0258 4.24272 28.1175 4.2684 28.2129 4.2904Z" fill="#808080"/>
</g>
<path d="M27.9371 4.21338L26.3415 7.0525C25.8903 7.84481 25.0539 8.34001 24.1406 8.34001H22.8971C21.9837 8.34001 21.1364 7.84481 20.6962 7.0525L19.1006 4.21338C21.5215 3.61914 23.5023 3.61914 23.5133 3.61914C23.5243 3.61914 25.5161 3.61914 27.9371 4.21338Z" fill="#D3222A"/>
<g style="mix-blend-mode:screen" opacity="0.3">
<path d="M27.4318 4.43341L26.6835 5.76494C24.1525 4.80756 21.5775 4.86258 19.9488 5.06066L19.5967 4.43341C21.7645 3.96022 23.5032 3.94922 23.5142 3.94922C23.5362 3.94922 25.2749 3.96022 27.4318 4.43341Z" fill="#B3B3B3"/>
</g>
<path d="M33.0328 14.0403C22.7107 11.5423 16.6033 15.4269 14.0062 17.7708C13.8632 17.2646 13.7861 16.7034 13.7861 16.0871C13.7861 12.0925 15.8329 10.2988 17.8688 10.2988C18.1329 10.2988 18.397 10.3208 18.6501 10.3869C21.5332 11.0691 23.437 11.0691 23.514 11.0691C23.591 11.0691 25.3517 11.0691 28.0368 10.4639C28.1468 10.4419 28.2605 10.4162 28.3779 10.3869C28.642 10.3208 28.9061 10.2988 29.1702 10.2988C30.3257 10.2988 31.5032 10.8821 32.2845 12.1366C32.6146 12.6538 32.8677 13.281 33.0328 14.0403Z" fill="#5D6063"/>
<g style="mix-blend-mode:screen" opacity="0.3">
<path d="M36.103 16.5821C36.9833 16.384 37.7536 16.1089 38.4139 15.7897C38.4579 14.6123 38.4359 13.6219 38.4139 13.1157C38.4029 12.8736 38.2708 12.6535 38.0618 12.5325C37.4345 12.1693 36.2901 11.498 36.2901 11.498C36.2901 11.498 36.07 13.941 36.103 16.5821Z" fill="#B3B3B3"/>
</g>
<path d="M16.6795 2.77212C15.9092 2.90417 15.381 3.20129 15.0618 3.44338C13.7523 4.58784 12.894 5.7543 12.3438 6.83273C13.9944 1.93578 17.6589 2.17788 17.0866 0.978406C16.7675 0.30714 15.9202 0.48321 15.524 0.813341C16.5144 -0.133035 17.7469 -0.265087 18.3741 0.48321C19.0784 1.30854 18.033 2.54102 16.6795 2.77212Z" fill="#5D6063"/>
<path d="M30.3589 2.77212C31.1292 2.90417 31.6574 3.20129 31.9655 3.44338C33.2861 4.58784 34.1334 5.7543 34.6946 6.83273C33.044 1.93578 29.3795 2.17788 29.9517 0.978406C30.2709 0.30714 31.1182 0.48321 31.5144 0.813341C30.513 -0.133035 29.2915 -0.265087 28.6532 0.48321C27.9599 1.30854 28.9944 2.54102 30.3589 2.77212Z" fill="#5D6063"/>
<path style="mix-blend-mode:screen" opacity="0.3" d="M31.6678 17.7933V15.1193C31.6678 13.8537 30.6334 12.8193 29.3569 12.8193H29.0267C27.7502 12.8193 26.7158 13.8537 26.7158 15.1193V17.7933C26.7158 19.0698 27.7502 20.0932 29.0267 20.0932H29.3569C30.6334 20.0932 31.6678 19.0698 31.6678 17.7933Z" fill="url(#paint4_radial_2_12617)"/>
<path style="mix-blend-mode:screen" opacity="0.3" d="M20.3231 17.7933V15.1193C20.3231 13.8537 19.2886 12.8193 18.0121 12.8193H17.671C16.3945 12.8193 15.3711 13.8537 15.3711 15.1193V17.7933C15.3711 19.0698 16.3945 20.0932 17.671 20.0932H18.0121C19.2886 20.0932 20.3231 19.0698 20.3231 17.7933Z" fill="url(#paint5_radial_2_12617)"/>
<path d="M17.8797 19.3334H17.8027C16.9223 19.3334 16.207 18.6181 16.207 17.7378V15.1848C16.207 14.2934 16.9223 13.5781 17.8027 13.5781H17.8797C18.76 13.5781 19.4753 14.2934 19.4753 15.1848V17.7378C19.4753 18.6181 18.76 19.3334 17.8797 19.3334Z" fill="white"/>
<path d="M29.1474 19.3334H29.2244C30.1158 19.3334 30.8311 18.6181 30.8311 17.7378V15.1848C30.8311 14.2934 30.1158 13.5781 29.2244 13.5781H29.1474C28.267 13.5781 27.5518 14.2934 27.5518 15.1848V17.7378C27.5518 18.6181 28.267 19.3334 29.1474 19.3334Z" fill="white"/>
<defs>
<linearGradient id="paint0_linear_2_12617" x1="12.8406" y1="43.5595" x2="4.7411" y2="42.9627" gradientUnits="userSpaceOnUse">
<stop offset="0.008" stop-color="#8A8A8A"/>
<stop offset="1" stop-color="#E6E6E6"/>
</linearGradient>
<linearGradient id="paint1_linear_2_12617" x1="20.9782" y1="27.9427" x2="28.1386" y2="20.5718" gradientUnits="userSpaceOnUse">
<stop offset="0.008" stop-color="#8A8A8A"/>
<stop offset="1" stop-color="#E6E6E6"/>
</linearGradient>
<linearGradient id="paint2_linear_2_12617" x1="5.08899" y1="45.7592" x2="11.3792" y2="20.7638" gradientUnits="userSpaceOnUse">
<stop offset="0.008" stop-color="#8A8A8A"/>
<stop offset="1" stop-color="#E6E6E6"/>
</linearGradient>
<linearGradient id="paint3_linear_2_12617" x1="11.0866" y1="27.6376" x2="12.3081" y2="2.04188" gradientUnits="userSpaceOnUse">
<stop offset="0.008" stop-color="#8A8A8A"/>
<stop offset="1" stop-color="#E6E6E6"/>
</linearGradient>
<radialGradient id="paint4_radial_2_12617" cx="0" cy="0" r="1" gradientUnits="userSpaceOnUse" gradientTransform="translate(29.1903 16.4569) scale(2.3589)">
<stop offset="0.008" stop-color="#6ACFFF"/>
<stop offset="1"/>
</radialGradient>
<radialGradient id="paint5_radial_2_12617" cx="0" cy="0" r="1" gradientUnits="userSpaceOnUse" gradientTransform="translate(17.8422 16.4569) scale(2.35879)">
<stop offset="0.008" stop-color="#6ACFFF"/>
<stop offset="1"/>
</radialGradient>
</defs>
</svg>
