<svg width="24" height="24" viewBox="0 0 24 24" fill="none" xmlns="http://www.w3.org/2000/svg">
<g clip-path="url(#clip0_120_5453)">
<path d="M17.0001 24.046H3C1.34601 24.046 0 22.7 0 21.046V7.0459C0 5.39191 1.34601 4.0459 3 4.0459H11.0001C11.553 4.0459 12 4.49396 12 5.04602C12 5.5979 11.553 6.04596 11.0001 6.04596H3C2.44794 6.04596 2.00006 6.49493 2.00006 7.0459V21.046C2.00006 21.5969 2.44794 22.0459 3 22.0459H17.0001C17.5519 22.0459 18 21.5969 18 21.046V13.0459C18 12.494 18.447 12.046 18.9999 12.046C19.5529 12.046 20.0001 12.494 20.0001 13.0459V21.046C20.0001 22.7 18.6541 24.046 17.0001 24.046Z" fill="#636363"/>
<path d="M17.2893 3.22314L9.3771 11.1351C9.30716 11.2051 9.2601 11.2941 9.24014 11.39L8.53317 14.9261C8.50021 15.09 8.55221 15.259 8.67013 15.3781C8.76517 15.4731 8.89316 15.524 9.02426 15.524C9.05612 15.524 9.08926 15.5211 9.12222 15.5141L12.6573 14.8071C12.7552 14.787 12.8442 14.7401 12.9132 14.67L20.8252 6.758L17.2893 3.22314Z" fill="#636363"/>
<path d="M23.2705 0.778152C22.2957 -0.196884 20.7096 -0.196884 19.7355 0.778152L18.3516 2.16206L21.8866 5.6971L23.2705 4.313C23.7426 3.84206 24.0026 3.214 24.0026 2.54604C24.0026 1.87807 23.7426 1.25002 23.2705 0.778152Z" fill="#636363"/>
</g>
<defs>
<clipPath id="clip0_120_5453">
<rect width="24" height="24" fill="white"/>
</clipPath>
</defs>
</svg>
