<svg width="20" height="20" viewBox="0 0 20 20" fill="none" xmlns="http://www.w3.org/2000/svg">
<g id="back-button (2) 1" clip-path="url(#clip0_1_9412)">
<g id="Group">
<path id="Vector" d="M9.99986 20C15.5138 20 19.9996 15.514 19.9996 9.99995C19.9996 4.48604 15.5138 0 9.99986 0C4.48595 0 0 4.48604 0 9.99995C0 15.514 4.48595 20 9.99986 20ZM9.99986 1.36892C14.759 1.36892 18.6307 5.24077 18.6308 9.99995C18.6308 14.7591 14.759 18.631 9.99986 18.6311C5.24077 18.631 1.36901 14.7591 1.36901 9.99986C1.36901 5.24086 5.24077 1.36892 9.99986 1.36892Z" fill="black"/>
<path id="Vector_2" d="M8.65675 14.283C8.92406 14.5503 9.35746 14.5502 9.62467 14.283C9.89207 14.0156 9.89207 13.5823 9.62458 13.3149L6.99443 10.6849L14.6108 10.6841C14.9888 10.6841 15.2952 10.3777 15.2952 9.99951C15.2951 9.6215 14.9887 9.31523 14.6107 9.31523L6.99406 9.31596L9.62485 6.68535C9.89216 6.41805 9.89216 5.98456 9.62485 5.71735C9.49115 5.58374 9.31602 5.51685 9.1408 5.51685C8.96567 5.51685 8.79054 5.58374 8.65684 5.71726L4.85773 9.51628C4.72932 9.64459 4.65723 9.81863 4.65723 10.0002C4.65732 10.1818 4.72941 10.3558 4.85782 10.4844L8.65675 14.283Z" fill="black"/>
</g>
</g>
<defs>
<clipPath id="clip0_1_9412">
<rect width="20" height="20" fill="white"/>
</clipPath>
</defs>
</svg>
