<svg width="16" height="16" viewBox="0 0 16 16" fill="none" xmlns="http://www.w3.org/2000/svg">
<path d="M13.3846 7.85809C14.8901 7.47356 16 6.10931 16 4.48516C16 2.55934 14.4413 1.00391 12.5188 1.00391H3.48125C1.56169 1.00394 0 2.56559 0 4.48516C0 6.41097 1.55863 7.96641 3.48125 7.96641H9.38206V13.0206C9.38206 13.2102 9.49625 13.3811 9.67144 13.4536C9.83428 13.5211 10.0389 13.4954 10.1823 13.352L12.0391 11.4952L13.3692 14.7062C13.4683 14.9454 13.7425 15.0589 13.9817 14.9599C14.2208 14.8608 14.3344 14.5866 14.2353 14.3474L12.9053 11.1364H15.5312C15.7208 11.1364 15.8918 11.0222 15.9643 10.847C16.0368 10.6718 15.9967 10.4702 15.8627 10.3362L13.3846 7.85809ZM3.48125 7.02891C2.07403 7.02891 0.9375 5.89003 0.9375 4.48516C0.9375 3.08253 2.07863 1.94141 3.48125 1.94141H12.5188C13.926 1.94141 15.0625 3.08028 15.0625 4.48516C15.0625 5.88034 13.9428 7.00884 12.5545 7.028L10.1823 4.65578C10.0483 4.52169 9.84656 4.48163 9.67144 4.55416C9.49628 4.62672 9.38206 4.79766 9.38206 4.98722V7.02887H3.48125V7.02891ZM12.2037 10.1989C12.0794 10.1989 11.9602 10.2483 11.8723 10.3362L10.3196 11.8889V6.11894L14.3996 10.1989H12.2037Z" fill="#d3222a; //#3ea3ec;"/>
</svg>
