<svg width="20" height="20" viewBox="0 0 20 20" fill="none" xmlns="http://www.w3.org/2000/svg">
<path d="M15.6453 3.70703H4.34375C4.02016 3.70703 3.75781 3.96937 3.75781 4.29297V13.3476C3.75781 13.6712 4.02016 13.9336 4.34375 13.9336H15.6454C15.9689 13.9336 16.2313 13.6712 16.2313 13.3476V4.29297C16.2312 3.96937 15.9689 3.70703 15.6453 3.70703ZM15.0594 4.87891V9.22703L13.2285 7.18832C13.1173 7.06453 12.9589 6.99387 12.7926 6.99387C12.7921 6.99387 12.7916 6.99387 12.7911 6.99387C12.6243 6.9943 12.4655 7.06578 12.3547 7.19047L9.96406 9.87934L7.61492 7.19402C7.50426 7.06754 7.34461 6.99465 7.17656 6.99387C7.1757 6.99387 7.1748 6.99387 7.17391 6.99387C7.00684 6.99387 6.84762 7.06523 6.73641 7.19L4.92961 9.21793V4.87887L15.0594 4.87891ZM4.92969 10.9796L7.16996 8.46512L10.9383 12.7617H4.92969V10.9796ZM12.4999 12.7617L10.7429 10.767L12.7948 8.45918L15.0594 10.9809V12.7616H12.4999V12.7617Z" fill="#d3222a; //#3ea3ec;"/>
<path d="M19.8495 8.42827L18.3847 6.80132C18.1681 6.56081 17.7976 6.54139 17.5571 6.75792C17.3167 6.97444 17.2973 7.34491 17.5138 7.58542L18.6257 8.82034L17.5138 10.0553C17.2973 10.2958 17.3167 10.6662 17.5572 10.8828C17.6692 10.9836 17.8093 11.0333 17.949 11.0333C18.1093 11.0333 18.2689 10.9679 18.3846 10.8394L19.8495 9.21241C20.0501 8.98952 20.0501 8.65112 19.8495 8.42827Z" fill="#d3222a; //#3ea3ec;"/>
<path d="M2.44284 6.7579C2.20237 6.54138 1.8319 6.56083 1.61534 6.8013L0.150498 8.42826C-0.050166 8.65111 -0.050166 8.98951 0.150498 9.21236L1.61534 10.8393C1.73104 10.9679 1.89069 11.0332 2.05097 11.0332C2.19065 11.0332 2.33085 10.9836 2.44284 10.8827C2.68335 10.6662 2.70276 10.2957 2.48624 10.0552L1.37436 8.82033L2.4862 7.5854C2.70272 7.34494 2.68331 6.97443 2.44284 6.7579Z" fill="#d3222a; //#3ea3ec;"/>
<path d="M14.1474 15.4828C13.9842 15.8601 14.2783 16.2978 14.6884 16.2929C15.0986 16.2977 15.3927 15.86 15.2295 15.4828C15.0314 15.0032 14.3455 15.0031 14.1474 15.4828Z" fill="#d3222a; //#3ea3ec;"/>
<path d="M11.8037 15.4828C11.6404 15.8601 11.9346 16.2979 12.3447 16.2929C12.7549 16.2978 13.049 15.86 12.8857 15.4828C12.6877 15.0032 12.0018 15.0031 11.8037 15.4828Z" fill="#d3222a; //#3ea3ec;"/>
<path d="M9.45995 15.4828C9.29666 15.8601 9.59077 16.2978 10.001 16.2929C10.4112 16.2977 10.7052 15.86 10.542 15.4828C10.344 15.0033 9.65788 15.003 9.45995 15.4828Z" fill="#d3222a; //#3ea3ec;"/>
<path d="M7.11611 15.4827C6.9531 15.8602 7.24674 16.2977 7.65713 16.2929C8.0672 16.2978 8.36146 15.86 8.19814 15.4827C8.00041 15.0031 7.31388 15.0032 7.11611 15.4827Z" fill="#d3222a; //#3ea3ec;"/>
<path d="M4.77236 15.4828C4.60935 15.8603 4.90302 16.2976 5.31337 16.2929C5.72376 16.2977 6.01736 15.8602 5.85439 15.4828C5.6565 15.0031 4.97029 15.0031 4.77236 15.4828Z" fill="#d3222a; //#3ea3ec;"/>
</svg>
