<svg width="16" height="16" viewBox="0 0 16 16" fill="none" xmlns="http://www.w3.org/2000/svg">
<path d="M13.5 4H11V3.5C11 3.23478 11.1054 2.98043 11.2929 2.79289C11.4804 2.60536 11.7348 2.5 12 2.5C12.1326 2.5 12.2598 2.44732 12.3536 2.35355C12.4473 2.25979 12.5 2.13261 12.5 2C12.5 1.86739 12.4473 1.74021 12.3536 1.64645C12.2598 1.55268 12.1326 1.5 12 1.5C11.716 1.50036 11.4354 1.56119 11.1768 1.67843C10.9181 1.79568 10.6874 1.96666 10.5 2.18C10.3126 1.96666 10.0819 1.79568 9.82324 1.67843C9.56461 1.56119 9.28397 1.50036 9 1.5C8.86739 1.5 8.74021 1.55268 8.64645 1.64645C8.55268 1.74021 8.5 1.86739 8.5 2C8.5 2.13261 8.55268 2.25979 8.64645 2.35355C8.74021 2.44732 8.86739 2.5 9 2.5C9.26522 2.5 9.51957 2.60536 9.70711 2.79289C9.89464 2.98043 10 3.23478 10 3.5V4H2.5C2.10218 4 1.72064 4.15804 1.43934 4.43934C1.15804 4.72064 1 5.10218 1 5.5V10.5C1 10.8978 1.15804 11.2794 1.43934 11.5607C1.72064 11.842 2.10218 12 2.5 12H10V12.5C10 12.7652 9.89464 13.0196 9.70711 13.2071C9.51957 13.3946 9.26522 13.5 9 13.5C8.86739 13.5 8.74021 13.5527 8.64645 13.6464C8.55268 13.7402 8.5 13.8674 8.5 14C8.5 14.1326 8.55268 14.2598 8.64645 14.3536C8.74021 14.4473 8.86739 14.5 9 14.5C9.28397 14.4996 9.56461 14.4388 9.82324 14.3216C10.0819 14.2043 10.3126 14.0333 10.5 13.82C10.6874 14.0333 10.9181 14.2043 11.1768 14.3216C11.4354 14.4388 11.716 14.4996 12 14.5C12.1326 14.5 12.2598 14.4473 12.3536 14.3536C12.4473 14.2598 12.5 14.1326 12.5 14C12.5 13.8674 12.4473 13.7402 12.3536 13.6464C12.2598 13.5527 12.1326 13.5 12 13.5C11.7348 13.5 11.4804 13.3946 11.2929 13.2071C11.1054 13.0196 11 12.7652 11 12.5V12H13.5C13.8978 12 14.2794 11.842 14.5607 11.5607C14.842 11.2794 15 10.8978 15 10.5V5.5C15 5.10218 14.842 4.72064 14.5607 4.43934C14.2794 4.15804 13.8978 4 13.5 4ZM2.5 11C2.36739 11 2.24021 10.9473 2.14645 10.8536C2.05268 10.7598 2 10.6326 2 10.5V5.5C2 5.36739 2.05268 5.24021 2.14645 5.14645C2.24021 5.05268 2.36739 5 2.5 5H10V11H2.5ZM14 10.5C14 10.6326 13.9473 10.7598 13.8536 10.8536C13.7598 10.9473 13.6326 11 13.5 11H11V5H13.5C13.6326 5 13.7598 5.05268 13.8536 5.14645C13.9473 5.24021 14 5.36739 14 5.5V10.5Z" fill="#d3222a; //#3ea3ec;"/>
<path d="M5.5 6H3.5C3.36739 6 3.24021 6.05268 3.14645 6.14645C3.05268 6.24021 3 6.36739 3 6.5C3 6.63261 3.05268 6.75979 3.14645 6.85355C3.24021 6.94732 3.36739 7 3.5 7H4V9.5C4 9.63261 4.05268 9.75979 4.14645 9.85355C4.24021 9.94732 4.36739 10 4.5 10C4.63261 10 4.75979 9.94732 4.85355 9.85355C4.94732 9.75979 5 9.63261 5 9.5V7H5.5C5.63261 7 5.75979 6.94732 5.85355 6.85355C5.94732 6.75979 6 6.63261 6 6.5C6 6.36739 5.94732 6.24021 5.85355 6.14645C5.75979 6.05268 5.63261 6 5.5 6Z" fill="#d3222a; //#3ea3ec;"/>
</svg>
