<svg width="18" height="18" viewBox="0 0 18 18" fill="none" xmlns="http://www.w3.org/2000/svg">
<path d="M14.4404 12.1858C14.4404 12.4153 14.2544 12.6013 14.0249 12.6013C13.7954 12.6013 13.6094 12.4153 13.6094 12.1858C13.6094 12.1882 13.6093 12.1894 13.6095 12.1894C13.6105 12.1895 13.6239 12.0759 13.7953 11.8188C13.8573 11.7257 13.9334 11.6237 14.0249 11.5127C14.1164 11.6237 14.1925 11.7257 14.2545 11.8188C14.4259 12.0759 14.4393 12.1895 14.4403 12.1894C14.4405 12.1894 14.4404 12.1882 14.4404 12.1858Z" fill="#344054" stroke="#344054" stroke-width="2"/>
<path d="M8.30859 2.45508L9.55974 3.70624" stroke="#344054" stroke-width="2" stroke-linecap="round"/>
<path d="M9.30977 3.45703L3.80469 8.96215L7.8084 12.9659L13.3135 7.46073L9.30977 3.45703Z" stroke="#344054" stroke-width="2" stroke-linejoin="round"/>
<path d="M5.17578 7.61133L11.178 9.58471" stroke="#344054" stroke-width="2" stroke-linecap="round"/>
<path d="M2.34375 15.7246H16.499" stroke="#344054" stroke-width="1.41553" stroke-linecap="round"/>
</svg>
