<svg width="16" height="16" viewBox="0 0 16 16" fill="none" xmlns="http://www.w3.org/2000/svg">
<g id="Delete">
<g id="Icon">
<path id="Vector" fill-rule="evenodd" clip-rule="evenodd" d="M13.8337 4.00016V4.3335C13.8337 4.9775 13.3117 5.50016 12.667 5.50016H3.33366C2.68899 5.50016 2.16699 4.9775 2.16699 4.3335V4.00016C2.16699 3.35616 2.68899 2.8335 3.33366 2.8335H12.667C13.3117 2.8335 13.8337 3.35616 13.8337 4.00016ZM12.8337 4.00016C12.8337 3.90816 12.759 3.8335 12.667 3.8335H3.33366C3.24166 3.8335 3.16699 3.90816 3.16699 4.00016V4.3335C3.16699 4.4255 3.24166 4.50016 3.33366 4.50016H12.667C12.759 4.50016 12.8337 4.4255 12.8337 4.3335V4.00016Z" fill="#4E4E4E"/>
<path id="Vector_2" fill-rule="evenodd" clip-rule="evenodd" d="M13.1659 5.03467L12.5853 13.4593C12.5186 14.4207 11.7199 15.1667 10.7559 15.1667H5.24527C4.28127 15.1667 3.4826 14.4207 3.41594 13.4593L2.83527 5.03467C2.82527 4.896 2.87394 4.76 2.9686 4.65867C3.06327 4.55733 3.19527 4.5 3.33394 4.5H12.6673C12.8059 4.5 12.9379 4.55733 13.0326 4.65867C13.1273 4.76 13.1759 4.896 13.1659 5.03467ZM12.1313 5.5H3.86994L4.41394 13.3907C4.44394 13.8273 4.80727 14.1667 5.24527 14.1667H10.7559C11.1939 14.1667 11.5573 13.8273 11.5873 13.3907L12.1313 5.5Z" fill="#4E4E4E"/>
<path id="Vector_3" fill-rule="evenodd" clip-rule="evenodd" d="M4.83398 3.32483V2.66683C4.83398 2.18083 5.02732 1.71416 5.37065 1.37016C5.71465 1.02683 6.18132 0.833496 6.66732 0.833496H9.33398C9.81998 0.833496 10.2867 1.02683 10.6307 1.37016C10.974 1.71416 11.1673 2.18083 11.1673 2.66683V3.32483C11.1673 3.79416 10.6673 3.8335 10.6673 3.8335C10.4933 3.8335 10.3407 3.74483 10.2507 3.61016C10.214 3.55816 10.186 3.4935 10.174 3.41483C10.17 3.38883 10.1673 3.3615 10.1673 3.3335C10.1673 3.33083 10.1673 3.3275 10.1673 3.32483V2.66683C10.1673 2.4455 10.0793 2.23416 9.92332 2.0775C9.76665 1.9215 9.55532 1.8335 9.33398 1.8335H6.66732C6.44598 1.8335 6.23465 1.9215 6.07798 2.0775C5.92198 2.23416 5.83398 2.4455 5.83398 2.66683V3.32483C5.83398 3.79416 5.33398 3.8335 5.33398 3.8335C5.05798 3.8335 4.83398 3.6095 4.83398 3.3335C4.83398 3.33083 4.83398 3.3275 4.83398 3.32483Z" fill="#4E4E4E"/>
<path id="Vector_4" fill-rule="evenodd" clip-rule="evenodd" d="M7.5 7.3335C7.5 7.0575 7.724 6.8335 8 6.8335C8.276 6.8335 8.5 7.0575 8.5 7.3335V12.3335C8.5 12.6095 8.276 12.8335 8 12.8335C7.724 12.8335 7.5 12.6095 7.5 12.3335V7.3335Z" fill="#4E4E4E"/>
<path id="Vector_5" fill-rule="evenodd" clip-rule="evenodd" d="M5.16815 7.36666C5.14949 7.09132 5.35815 6.85266 5.63349 6.83466C5.90882 6.81599 6.14749 7.02466 6.16549 7.29999L6.49882 12.3C6.51749 12.5753 6.30882 12.814 6.03349 12.832C5.75815 12.8507 5.51949 12.642 5.50149 12.3667L5.16815 7.36666Z" fill="#4E4E4E"/>
<path id="Vector_6" fill-rule="evenodd" clip-rule="evenodd" d="M9.83547 7.29999C9.85347 7.02466 10.0921 6.81599 10.3675 6.83466C10.6428 6.85266 10.8515 7.09132 10.8328 7.36666L10.4995 12.3667C10.4815 12.642 10.2428 12.8507 9.96747 12.832C9.69214 12.814 9.48347 12.5753 9.50214 12.3L9.83547 7.29999Z" fill="#4E4E4E"/>
</g>
</g>
</svg>
