<svg width="24" height="24" viewBox="0 0 24 24" fill="none" xmlns="http://www.w3.org/2000/svg">
<g clip-path="url(#clip0_308_12249)">
<path d="M12 0C5.38317 0 0 5.38317 0 12C0 18.6168 5.38317 24 12 24C18.6168 24 24 18.6168 24 12C24 5.38317 18.6168 0 12 0ZM12 22.5C6.21028 22.5 1.5 17.7897 1.5 12C1.5 6.21028 6.21028 1.5 12 1.5C17.7897 1.5 22.5 6.21028 22.5 12C22.5 17.7897 17.7897 22.5 12 22.5ZM18.4476 15.3375C17.6651 16.2907 16.6809 17.0586 15.566 17.5858C14.4511 18.113 13.2332 18.3864 12 18.3864C10.7667 18.3864 9.54876 18.113 8.43386 17.5858C7.31896 17.0586 6.33482 16.2907 5.5523 15.3375C5.48939 15.2615 5.4421 15.1737 5.41316 15.0794C5.38421 14.985 5.37418 14.8859 5.38362 14.7877C5.39306 14.6894 5.4218 14.594 5.46819 14.5069C5.51458 14.4198 5.57771 14.3427 5.65395 14.28C5.73019 14.2174 5.81805 14.1704 5.9125 14.1417C6.00694 14.1131 6.10611 14.1033 6.20432 14.1131C6.30253 14.1229 6.39785 14.1519 6.48481 14.1986C6.57177 14.2452 6.64867 14.3086 6.71109 14.385C7.3529 15.1671 8.16014 15.797 9.07467 16.2295C9.9892 16.6621 10.9883 16.8864 11.9999 16.8864C13.0116 16.8864 14.0107 16.6621 14.9252 16.2295C15.8397 15.797 16.647 15.1671 17.2888 14.385C17.4153 14.2321 17.5973 14.1356 17.7949 14.1166C17.9925 14.0976 18.1895 14.1577 18.3429 14.2837C18.4962 14.4098 18.5933 14.5915 18.613 14.789C18.6326 14.9865 18.5731 15.1838 18.4476 15.3375H18.4476ZM13.7407 9.92602V9.39844C13.7407 8.29378 14.7712 7.39509 16.0376 7.39509C17.3041 7.39509 18.3345 8.29378 18.3345 9.39844V9.92625C18.3345 10.1252 18.2555 10.3159 18.1148 10.4566C17.9742 10.5972 17.7834 10.6762 17.5845 10.6762C17.3856 10.6762 17.1948 10.5972 17.0542 10.4566C16.9135 10.3159 16.8345 10.1252 16.8345 9.92625V9.39844C16.8345 9.16083 16.4937 8.89509 16.0376 8.89509C15.5816 8.89509 15.2407 9.16083 15.2407 9.39844V9.92625C15.2407 10.1252 15.1617 10.3159 15.0211 10.4566C14.8804 10.5972 14.6897 10.6762 14.4907 10.6762C14.2918 10.6762 14.1011 10.5972 13.9604 10.4566C13.8198 10.3159 13.7407 10.1252 13.7407 9.92625V9.92602ZM5.66527 9.92602V9.39844C5.66527 8.29378 6.69572 7.39509 7.96214 7.39509C9.22856 7.39509 10.259 8.29378 10.259 9.39844V9.92625C10.259 10.1252 10.18 10.3159 10.0393 10.4566C9.89869 10.5972 9.70793 10.6762 9.50902 10.6762C9.3101 10.6762 9.11934 10.5972 8.97869 10.4566C8.83803 10.3159 8.75902 10.1252 8.75902 9.92625V9.39844C8.75902 9.16083 8.41823 8.89509 7.96214 8.89509C7.50605 8.89509 7.16527 9.16083 7.16527 9.39844V9.92625C7.16527 10.1252 7.08625 10.3159 6.9456 10.4566C6.80494 10.5972 6.61418 10.6762 6.41527 10.6762C6.21635 10.6762 6.02559 10.5972 5.88494 10.4566C5.74428 10.3159 5.66527 10.1252 5.66527 9.92625V9.92602Z" fill="#667085"/>
</g>
<defs>
<clipPath id="clip0_308_12249">
<rect width="24" height="24" fill="white"/>
</clipPath>
</defs>
</svg>
