<svg width="16" height="16" viewBox="0 0 16 16" fill="none" xmlns="http://www.w3.org/2000/svg">
<path d="M5.77734 3.97852H10.2227" stroke="#d3222a; //#3ea3ec;" stroke-width="0.6" stroke-miterlimit="10" stroke-linecap="round" stroke-linejoin="round"/>
<mask id="mask0_801_16687" style="mask-type:luminance" maskUnits="userSpaceOnUse" x="0" y="0" width="16" height="16">
<path d="M0 9.53674e-07H16V16H0V9.53674e-07Z" fill="white"/>
</mask>
<g mask="url(#mask0_801_16687)">
<path d="M4.5 6.25377V6.86352C4.5 7.02195 4.62844 7.15039 4.78687 7.15039H11.2132C11.3716 7.15039 11.5001 7.02195 11.5001 6.86352V6.25377C11.5001 6.09533 11.3716 5.96689 11.2132 5.96689H4.78687C4.62844 5.96689 4.5 6.09533 4.5 6.25377Z" stroke="#d3222a; //#3ea3ec;" stroke-width="0.6" stroke-miterlimit="10" stroke-linecap="round" stroke-linejoin="round"/>
<path d="M4.5 8.90614V9.51589C4.5 9.67433 4.62844 9.80273 4.78687 9.80273H11.2132C11.3716 9.80273 11.5001 9.67433 11.5001 9.51589V8.90614C11.5001 8.7477 11.3716 8.61927 11.2132 8.61927H4.78687C4.62844 8.61927 4.5 8.7477 4.5 8.90614Z" stroke="#d3222a; //#3ea3ec;" stroke-width="0.6" stroke-miterlimit="10" stroke-linecap="round" stroke-linejoin="round"/>
<path d="M8.54644 11.4406H7.45612C7.14166 11.4406 6.88672 11.6955 6.88672 12.01V12.0419C6.88672 12.3564 7.14166 12.6113 7.45612 12.6113H8.54644C8.86091 12.6113 9.11587 12.3564 9.11587 12.0419V12.01C9.11587 11.6955 8.86091 11.4406 8.54644 11.4406Z" stroke="#d3222a; //#3ea3ec;" stroke-width="0.6" stroke-miterlimit="10" stroke-linecap="round" stroke-linejoin="round"/>
<path d="M12.9156 0.234391H3.08459C2.71428 0.234391 2.41406 0.53461 2.41406 0.904953V2.60352H13.5861V0.904953C13.5861 0.53461 13.2859 0.234391 12.9156 0.234391Z" stroke="#d3222a; //#3ea3ec;" stroke-width="0.6" stroke-miterlimit="10" stroke-linecap="round" stroke-linejoin="round"/>
<path d="M2.41406 4.4468V13.9212C2.41406 14.2916 2.71428 14.5918 3.08462 14.5918H9.11469" stroke="#d3222a; //#3ea3ec;" stroke-width="0.6" stroke-miterlimit="10" stroke-linecap="round" stroke-linejoin="round"/>
<path d="M13.1766 14.5391C13.4173 14.4373 13.5862 14.1989 13.5862 13.9212V0.904939C13.5862 0.534595 13.2859 0.234376 12.9156 0.234376H3.08463C2.71431 0.234376 2.41406 0.534595 2.41406 0.904939V3.50928" stroke="#d3222a; //#3ea3ec;" stroke-width="0.6" stroke-miterlimit="10" stroke-linecap="round" stroke-linejoin="round"/>
<path d="M3.90062 0.937031C3.63406 0.937031 3.41797 1.15313 3.41797 1.41969C3.41797 1.68625 3.63406 1.90234 3.90062 1.90234C4.16719 1.90234 4.38328 1.68625 4.38328 1.41969C4.38328 1.15313 4.16719 0.937031 3.90062 0.937031Z" stroke="#d3222a; //#3ea3ec;" stroke-width="0.6" stroke-miterlimit="10" stroke-linecap="round" stroke-linejoin="round"/>
<path d="M5.77562 0.937031C5.50906 0.937031 5.29297 1.15313 5.29297 1.41969C5.29297 1.68625 5.50906 1.90234 5.77562 1.90234C6.04219 1.90234 6.25828 1.68625 6.25828 1.41969C6.25828 1.15313 6.04219 0.937031 5.77562 0.937031Z" stroke="#d3222a; //#3ea3ec;" stroke-width="0.6" stroke-miterlimit="10" stroke-linecap="round" stroke-linejoin="round"/>
<path d="M7.65453 0.937031C7.38797 0.937031 7.17188 1.15313 7.17188 1.41969C7.17188 1.68625 7.38797 1.90234 7.65453 1.90234C7.92109 1.90234 8.13719 1.68625 8.13719 1.41969C8.13719 1.15313 7.92109 0.937031 7.65453 0.937031Z" stroke="#d3222a; //#3ea3ec;" stroke-width="0.6" stroke-miterlimit="10" stroke-linecap="round" stroke-linejoin="round"/>
<path d="M12.7459 13.4519L10.3143 12.048C10.2041 11.9844 10.0664 12.0639 10.0664 12.1911V14.999C10.0664 15.1261 10.2041 15.2057 10.3143 15.1421L10.9407 14.7804C11.0329 14.7272 11.1507 14.7588 11.2039 14.851L11.6786 15.6731C11.7297 15.7616 11.8429 15.7919 11.9314 15.7408L12.4559 15.438C12.5444 15.3869 12.5747 15.2737 12.5237 15.1852L12.049 14.3631C11.9958 14.2709 12.0274 14.153 12.1196 14.0998L12.7459 13.7381C12.8561 13.6746 12.8561 13.5155 12.7459 13.4519Z" stroke="#d3222a; //#3ea3ec;" stroke-width="0.6" stroke-miterlimit="10" stroke-linecap="round" stroke-linejoin="round"/>
</g>
</svg>
