<svg width="24" height="24" viewBox="0 0 24 24" fill="none" xmlns="http://www.w3.org/2000/svg">
<path fill-rule="evenodd" clip-rule="evenodd" d="M2 22.75C1.586 22.75 1.25 22.414 1.25 22C1.25 21.586 1.586 21.25 2 21.25H20.778C21.192 21.25 21.528 21.586 21.528 22C21.528 22.414 21.192 22.75 20.778 22.75H2Z" fill="black"/>
<path fill-rule="evenodd" clip-rule="evenodd" d="M9.02417 19.887L2.27117 22.733C1.99017 22.851 1.66617 22.788 1.45017 22.572C1.23417 22.356 1.17117 22.031 1.28917 21.75L4.13517 14.997L9.02417 19.887ZM5.02217 13.763L16.7292 2.055C17.2452 1.54 17.9452 1.25 18.6742 1.25C19.4032 1.25 20.1032 1.54 20.6182 2.055L21.9662 3.403C22.4822 3.919 22.7722 4.619 22.7722 5.348C22.7722 6.077 22.4822 6.777 21.9662 7.292L10.2592 19L5.02217 13.763Z" fill="black"/>
</svg>
