<svg width="56" height="56" viewBox="0 0 56 56" fill="none" xmlns="http://www.w3.org/2000/svg">
<rect x="4" y="4" width="48" height="48" rx="24" fill="#D1FADF"/>
<rect x="4" y="4" width="48" height="48" rx="24" stroke="#ECFDF3" stroke-width="8"/>
<g clip-path="url(#clip0_828_16167)">
<path d="M37.1937 22.5563L33.4437 18.8063C33.3853 18.7483 33.3161 18.7025 33.2399 18.6714C33.1638 18.6403 33.0823 18.6245 33 18.625H20.5C20.0027 18.625 19.5258 18.8226 19.1742 19.1742C18.8225 19.5258 18.625 20.0027 18.625 20.5V35.5C18.625 35.9973 18.8225 36.4742 19.1742 36.8258C19.5258 37.1775 20.0027 37.375 20.5 37.375H35.5C35.9973 37.375 36.4742 37.1775 36.8258 36.8258C37.1775 36.4742 37.375 35.9973 37.375 35.5V23C37.3755 22.9178 37.3597 22.8362 37.3286 22.7601C37.2975 22.6839 37.2517 22.6147 37.1937 22.5563ZM30.5 19.875V23.625H25.5V19.875H30.5ZM23 36.125V31.75C23 31.5843 23.0658 31.4253 23.1831 31.3081C23.3003 31.1909 23.4592 31.125 23.625 31.125H32.375C32.5408 31.125 32.6997 31.1909 32.8169 31.3081C32.9342 31.4253 33 31.5843 33 31.75V36.125H23ZM36.125 35.5C36.125 35.6658 36.0592 35.8247 35.9419 35.942C35.8247 36.0592 35.6658 36.125 35.5 36.125H34.25V31.75C34.25 31.2527 34.0525 30.7758 33.7008 30.4242C33.3492 30.0726 32.8723 29.875 32.375 29.875H23.625C23.1277 29.875 22.6508 30.0726 22.2992 30.4242C21.9475 30.7758 21.75 31.2527 21.75 31.75V36.125H20.5C20.3342 36.125 20.1753 36.0592 20.0581 35.942C19.9408 35.8247 19.875 35.6658 19.875 35.5V20.5C19.875 20.3343 19.9408 20.1753 20.0581 20.0581C20.1753 19.9409 20.3342 19.875 20.5 19.875H24.25V23.625C24.25 23.9565 24.3817 24.2745 24.6161 24.5089C24.8505 24.7433 25.1685 24.875 25.5 24.875H30.5C30.8315 24.875 31.1495 24.7433 31.3839 24.5089C31.6183 24.2745 31.75 23.9565 31.75 23.625V19.875H32.7438L36.125 23.2563V35.5Z" fill="#039855"/>
</g>
<defs>
<clipPath id="clip0_828_16167">
<rect width="20" height="20" fill="white" transform="translate(18 18)"/>
</clipPath>
</defs>
</svg>
