<svg width="16" height="16" viewBox="0 0 16 16" fill="none" xmlns="http://www.w3.org/2000/svg">
<g clip-path="url(#clip0_308_13841)">
<path fill-rule="evenodd" clip-rule="evenodd" d="M7.44004 8.55916L1.40804 6.54849C1.06271 6.43316 0.830044 6.10916 0.832044 5.74516C0.834044 5.38116 1.06938 5.05916 1.41604 4.94783L14.0647 0.874493C14.3654 0.777827 14.6954 0.85716 14.9187 1.08049C15.142 1.30383 15.2214 1.63383 15.1247 1.93449L11.0514 14.5832C10.94 14.9298 10.618 15.1652 10.254 15.1672C9.89004 15.1692 9.56604 14.9365 9.45071 14.5912L7.44004 8.55916ZM2.18071 5.75183L7.99338 7.68983C8.14271 7.73916 8.26004 7.85649 8.30938 8.00583L10.2474 13.8185L14.0787 1.92049L2.18071 5.75183Z" fill="#d3222a; //#3ea3ec;"/>
<path fill-rule="evenodd" clip-rule="evenodd" d="M8.1891 8.51803C7.99444 8.71336 7.6771 8.71336 7.48244 8.51803C7.2871 8.32336 7.2871 8.00603 7.48244 7.81136L14.0164 1.27736C14.2111 1.08203 14.5284 1.08203 14.7231 1.27736C14.9184 1.47203 14.9184 1.78936 14.7231 1.98403L8.1891 8.51803Z" fill="#d3222a; //#3ea3ec;"/>
</g>
<defs>
<clipPath id="clip0_308_13841">
<rect width="16" height="16" fill="white"/>
</clipPath>
</defs>
</svg>
