<svg width="24" height="24" viewBox="0 0 24 24" fill="none" xmlns="http://www.w3.org/2000/svg">
<path d="M22.101 10.5622L2.753 1.12319C2.56707 1.03258 2.36114 0.990775 2.15459 1.0017C1.94805 1.01263 1.74768 1.07593 1.57235 1.18565C1.39702 1.29538 1.25248 1.4479 1.15236 1.62889C1.05223 1.80987 0.999799 2.01335 1 2.22019V2.25519C1.0001 2.4187 1.02025 2.58158 1.06 2.74019L2.916 10.1642C2.94088 10.2631 2.9954 10.352 3.07226 10.419C3.14912 10.4861 3.24464 10.528 3.346 10.5392L11.503 11.4462C11.6387 11.4625 11.7638 11.528 11.8545 11.6303C11.9452 11.7325 11.9952 11.8645 11.9952 12.0012C11.9952 12.1379 11.9452 12.2698 11.8545 12.3721C11.7638 12.4744 11.6387 12.5399 11.503 12.5562L3.346 13.4632C3.24464 13.4744 3.14912 13.5163 3.07226 13.5833C2.9954 13.6504 2.94088 13.7393 2.916 13.8382L1.06 21.2612C1.02025 21.4198 1.0001 21.5827 1 21.7462V21.7812C0.999969 21.9879 1.05252 22.1913 1.15272 22.3721C1.25292 22.553 1.39747 22.7054 1.57277 22.815C1.74808 22.9246 1.94838 22.9878 2.15484 22.9987C2.36131 23.0096 2.56714 22.9678 2.753 22.8772L22.1 13.4382C22.3694 13.3067 22.5965 13.1022 22.7554 12.848C22.9142 12.5937 22.9985 12.3 22.9985 12.0002C22.9985 11.7004 22.9142 11.4066 22.7554 11.1524C22.5965 10.8981 22.3704 10.6936 22.101 10.5622Z" fill="#667085"/>
</svg>
