<svg width="18" height="22" viewBox="0 0 18 22" fill="none" xmlns="http://www.w3.org/2000/svg">
<path fill-rule="evenodd" clip-rule="evenodd" d="M17.75 5V5.5C17.75 6.466 16.967 7.25 16 7.25H2C1.033 7.25 0.25 6.466 0.25 5.5V5C0.25 4.034 1.033 3.25 2 3.25H16C16.967 3.25 17.75 4.034 17.75 5ZM16.25 5C16.25 4.862 16.138 4.75 16 4.75H2C1.862 4.75 1.75 4.862 1.75 5V5.5C1.75 5.638 1.862 5.75 2 5.75H16C16.138 5.75 16.25 5.638 16.25 5.5V5Z" fill="black"/>
<path fill-rule="evenodd" clip-rule="evenodd" d="M16.7479 6.552L15.8769 19.189C15.7769 20.631 14.5789 21.75 13.1329 21.75H4.86693C3.42093 21.75 2.22293 20.631 2.12293 19.189L1.25193 6.552C1.23693 6.344 1.30993 6.14 1.45193 5.988C1.59393 5.836 1.79193 5.75 1.99993 5.75H15.9999C16.2079 5.75 16.4059 5.836 16.5479 5.988C16.6899 6.14 16.7629 6.344 16.7479 6.552ZM15.1959 7.25H2.80393L3.61993 19.086C3.66493 19.741 4.20993 20.25 4.86693 20.25H13.1329C13.7899 20.25 14.3349 19.741 14.3799 19.086L15.1959 7.25Z" fill="black"/>
<path fill-rule="evenodd" clip-rule="evenodd" d="M4.25 3.987V3C4.25 2.271 4.54 1.571 5.055 1.055C5.571 0.54 6.271 0.25 7 0.25H11C11.729 0.25 12.429 0.54 12.945 1.055C13.46 1.571 13.75 2.271 13.75 3V3.987C13.75 4.691 13 4.75 13 4.75C12.739 4.75 12.51 4.617 12.375 4.415C12.32 4.337 12.278 4.24 12.26 4.122C12.254 4.083 12.25 4.042 12.25 4C12.25 3.996 12.25 3.991 12.25 3.987V3C12.25 2.668 12.118 2.351 11.884 2.116C11.649 1.882 11.332 1.75 11 1.75H7C6.668 1.75 6.351 1.882 6.116 2.116C5.882 2.351 5.75 2.668 5.75 3V3.987C5.75 4.691 5 4.75 5 4.75C4.586 4.75 4.25 4.414 4.25 4C4.25 3.996 4.25 3.991 4.25 3.987Z" fill="black"/>
<path fill-rule="evenodd" clip-rule="evenodd" d="M8.25 10C8.25 9.586 8.586 9.25 9 9.25C9.414 9.25 9.75 9.586 9.75 10V17.5C9.75 17.914 9.414 18.25 9 18.25C8.586 18.25 8.25 17.914 8.25 17.5V10Z" fill="black"/>
<path fill-rule="evenodd" clip-rule="evenodd" d="M4.75174 10.0497C4.72374 9.63674 5.03674 9.27874 5.44974 9.25174C5.86274 9.22374 6.22074 9.53674 6.24774 9.94974L6.74774 17.4497C6.77574 17.8627 6.46274 18.2207 6.04974 18.2477C5.63674 18.2757 5.27874 17.9627 5.25174 17.5497L4.75174 10.0497Z" fill="black"/>
<path fill-rule="evenodd" clip-rule="evenodd" d="M11.7517 9.94974C11.7787 9.53674 12.1367 9.22374 12.5497 9.25174C12.9627 9.27874 13.2757 9.63674 13.2477 10.0497L12.7477 17.5497C12.7207 17.9627 12.3627 18.2757 11.9497 18.2477C11.5367 18.2207 11.2237 17.8627 11.2517 17.4497L11.7517 9.94974Z" fill="black"/>
</svg>
